<svg xmlns="http://www.w3.org/2000/svg" xmlns:xlink="http://www.w3.org/1999/xlink" width="30.466" height="32.203" viewBox="0 0 30.466 32.203"><defs><style>.a{fill:none;}.b{fill:#fff;}.c{clip-path:url(#a);}.d{fill:#e94e1b;}.e{fill:#f39200;}.f{clip-path:url(#b);}.g{clip-path:url(#c);}.h{fill:#e6007e;}.i{clip-path:url(#d);}.j{clip-path:url(#e);}.k{clip-path:url(#f);}.l{fill:#999;}.m{clip-path:url(#g);}.n{clip-path:url(#h);}.o{clip-path:url(#i);}.p{clip-path:url(#j);}.q{clip-path:url(#k);}.r{clip-path:url(#l);}.s{clip-path:url(#m);}.t{clip-path:url(#n);}.u{clip-path:url(#o);}.v{clip-path:url(#p);}.w{clip-path:url(#q);}.x{clip-path:url(#r);}.y{clip-path:url(#s);}.z{clip-path:url(#t);}.aa{clip-path:url(#u);}.ab{clip-path:url(#v);}.ac{clip-path:url(#ac);}.ad{clip-path:url(#ai);}.ae{clip-path:url(#aj);}</style><clipPath id="a"><rect class="a" width="7.617" height="7.617" transform="translate(0 5.386) rotate(-45)"/></clipPath><clipPath id="b"><rect class="a" width="3.988" height="3.466"/></clipPath><clipPath id="c"><rect class="a" width="1.405" height="2.007"/></clipPath><clipPath id="d"><rect class="a" width="2.161" height="4.143"/></clipPath><clipPath id="e"><rect class="a" width="1.444" height="2.19"/></clipPath><clipPath id="f"><rect class="a" width="4.272" height="3.348"/></clipPath><clipPath id="g"><rect class="a" width="2.399" height="0.832"/></clipPath><clipPath id="h"><rect class="a" width="8.074" height="8.074" transform="matrix(0.966, -0.259, 0.259, 0.966, 0, 2.09)"/></clipPath><clipPath id="i"><rect class="a" width="3.988" height="3.466" transform="translate(0 3.453) rotate(-60)"/></clipPath><clipPath id="j"><rect class="a" width="1.405" height="2.007" transform="translate(0 1.216) rotate(-60)"/></clipPath><clipPath id="k"><rect class="a" width="2.161" height="4.143" transform="translate(0 1.871) rotate(-60)"/></clipPath><clipPath id="l"><rect class="a" width="1.444" height="2.19" transform="translate(0 1.251) rotate(-60)"/></clipPath><clipPath id="m"><rect class="a" width="4.272" height="3.348" transform="translate(0 3.7) rotate(-60)"/></clipPath><clipPath id="n"><rect class="a" width="2.408" height="0.835" transform="translate(0 2.088) rotate(-60.113)"/></clipPath><clipPath id="o"><rect class="a" width="7.617" height="7.617" transform="matrix(0.259, -0.966, 0.966, 0.259, 0, 7.357)"/></clipPath><clipPath id="p"><rect class="a" width="3.466" height="3.988" transform="translate(0 1.733) rotate(-30)"/></clipPath><clipPath id="q"><rect class="a" width="2.007" height="1.405" transform="translate(0 1.003) rotate(-30)"/></clipPath><clipPath id="r"><rect class="a" width="4.143" height="2.161" transform="translate(0 2.071) rotate(-30)"/></clipPath><clipPath id="s"><rect class="a" width="2.19" height="1.444" transform="translate(0 1.095) rotate(-30)"/></clipPath><clipPath id="t"><rect class="a" width="3.348" height="4.272" transform="translate(0 1.674) rotate(-30)"/></clipPath><clipPath id="u"><rect class="a" width="0.832" height="2.4" transform="translate(0 0.416) rotate(-30)"/></clipPath><clipPath id="v"><rect class="a" width="8.074" height="8.074" transform="translate(0 5.709) rotate(-45)"/></clipPath><clipPath id="ac"><rect class="a" width="7.617" height="7.617" transform="matrix(0.966, -0.259, 0.259, 0.966, 0, 1.971)"/></clipPath><clipPath id="ai"><rect class="a" width="2.399" height="0.832" transform="translate(0 2.078) rotate(-60)"/></clipPath><clipPath id="aj"><rect class="a" width="8.074" height="8.074" transform="matrix(0.259, -0.966, 0.966, 0.259, 0, 7.799)"/></clipPath></defs><g transform="translate(-0.011)"><g transform="translate(0.011)"><path class="b" d="M3.9,252.417c-.86,1.584-1.75,3.221-2.652,4.807-2.021,3.557-1.1,6.008-.423,7.188s2.45,3.2,6.537,3.232c1.828.011,3.691.059,5.492.106.574.015,1.121-.011,1.677,0a14.379,14.379,0,0,0,.465-3.5c-2.466-.057-5.058-.144-7.627-.159-1.79-.012-2.981-.53-3.5-1.435s-.4-2.242.485-3.8c1.324-2.325,2.629-4.578,3.85-6.908A14.382,14.382,0,0,0,5,250.48C4.658,251.1,4.242,251.783,3.9,252.417Z" transform="translate(-0.011 -239.427)"/><g class="c" transform="translate(9.885 21.134)"><path class="d" d="M136.725,8.514c.154-.221.953-.452.953-.452a16.173,16.173,0,0,0,1.79-.519c.2-.343,5.506-9.531,6.521-11.292l.006-.011L148.03-.233l-.007.011-5.658,9.8-.056.1.088,3.177s-.03.745-1.507.814c-1.1.052-2.784.144-3.632.177-.246.009-.4.03-.555-.112-.12-.111-.105-.391-.105-.391V9.078a1.171,1.171,0,0,1,.129-.563" transform="translate(-140.455 -17.54)"/><path class="e" d="M-15.242,302.429a5.416,5.416,0,0,0-.182-1.37,8.319,8.319,0,0,1-.155-1.728,1.133,1.133,0,0,1,.093-.441.585.585,0,0,1,.4-.306,5,5,0,0,1,.654-.12l.005,1.716a.132.132,0,0,0,.03.088.32.32,0,0,0,.135.02c.98-.113.976-.687.993-1.214v-.742l4.354-.33s.473.03.5.433a.516.516,0,0,1-.441.574l-2.524.306c-.072,0-.129.037-.127.072s.062.061.132.057l2.518-.306a.443.443,0,0,1,.418.365c.067.513-.342.576-.342.576l-2.528.306c-.072,0-.128.037-.127.073s.063.061.132.057l2.524-.306a.36.36,0,0,1,.353.367.391.391,0,0,1-.332.46l-2.443.3c-.072,0-.129.037-.127.072s.062.062.132.057l2.452-.3a.3.3,0,0,1,.348.267c.069.475-.286.485-.286.485a15.48,15.48,0,0,0-2.283.651,2.39,2.39,0,0,0-1.1,1.319l-5.327,9.23H-21.4c1.151-1.989,6.093-10.551,6.158-10.688" transform="translate(10.57 -305.984)"/><g transform="translate(-2.028 -5.751)"><g class="f"><path class="a" d="M219.334,358.638a.428.428,0,0,0-.274.544l.469,1.2s.128.3.514.136.3-.459.3-.459l-.47-1.207a.389.389,0,0,0-.543-.218" transform="translate(-217.23 -358.154)"/><path class="a" d="M239.589,348.705a.438.438,0,0,0-.26.54l.469,1.206s.12.269.5.14a.435.435,0,0,0,.293-.455l-.47-1.206a.391.391,0,0,0-.535-.221" transform="translate(-236.609 -348.668)"/><path class="a" d="M178.376,382.07a.468.468,0,0,0-.295.555l.468,1.2a.426.426,0,0,0,.53.146.458.458,0,0,0,.336-.489l-.469-1.205a.414.414,0,0,0-.574-.21" transform="translate(-178.067 -380.545)"/><path class="a" d="M198.1,367.743a.469.469,0,0,0-.295.556l.469,1.2a.427.427,0,0,0,.53.146.459.459,0,0,0,.336-.489l-.47-1.206a.416.416,0,0,0-.574-.21" transform="translate(-196.917 -366.851)"/></g></g><path class="d" d="M219.307,363.054a.422.422,0,0,0-.271.539l.47,1.191s.125.3.511.136.3-.454.3-.454l-.471-1.2a.388.388,0,0,0-.539-.218" transform="translate(-219.235 -368.126)"/><path class="d" d="M239.4,353.215a.432.432,0,0,0-.257.534l.47,1.191s.12.265.5.14a.427.427,0,0,0,.29-.45l-.471-1.2a.391.391,0,0,0-.532-.221" transform="translate(-238.461 -358.729)"/><path class="d" d="M178.693,386.2a.46.46,0,0,0-.291.549l.469,1.191a.428.428,0,0,0,.53.146.451.451,0,0,0,.333-.483l-.473-1.192a.414.414,0,0,0-.568-.21" transform="translate(-180.402 -390.245)"/><path class="d" d="M198.237,372.009a.46.46,0,0,0-.291.549l.47,1.191a.428.428,0,0,0,.53.146.451.451,0,0,0,.333-.483l-.473-1.194a.414.414,0,0,0-.568-.209" transform="translate(-199.082 -376.681)"/><path class="b" d="M181.916,389.684a.137.137,0,0,0-.014-.11l-.022-.054a.319.319,0,0,0-.441-.184.34.34,0,0,0-.213.441l.021.053a.24.24,0,0,0,.069.105c.041.026.109-.015.109-.015l.4-.166a.158.158,0,0,0,.088-.074" transform="translate(-183.096 -393.261)"/><path class="b" d="M222.013,365.585a.135.135,0,0,0-.014-.11l-.022-.055a.319.319,0,0,0-.441-.184.339.339,0,0,0-.213.441l.021.053a.241.241,0,0,0,.069.106c.041.026.109-.015.109-.015l.4-.166a.16.16,0,0,0,.088-.073" transform="translate(-221.423 -370.225)"/><path class="b" d="M241.745,355.884a.132.132,0,0,0-.013-.105l-.021-.053a.305.305,0,0,0-.422-.176.326.326,0,0,0-.2.424l.023.054a.229.229,0,0,0,.065.1c.04.025.105-.014.105-.014l.387-.158a.15.15,0,0,0,.083-.07" transform="translate(-240.313 -360.968)"/><path class="b" d="M201.232,374.644a.137.137,0,0,0-.014-.109l-.021-.055a.32.32,0,0,0-.441-.184.339.339,0,0,0-.213.441l.021.053a.24.24,0,0,0,.068.106c.044.026.11-.015.11-.015l.4-.165a.158.158,0,0,0,.088-.074" transform="translate(-201.56 -378.885)"/><g transform="translate(-3.836 -7.679)"><g class="g"><path class="a" d="M137.1,306.867a.167.167,0,0,0,.149.06,1.1,1.1,0,0,0,1.23-1.086l.026-.921-.265.021s0,.149,0,.345c.009.694-.025,1.063-.2,1.258a1.174,1.174,0,0,1-.814.357.152.152,0,0,1-.123-.033" transform="translate(-137.1 -304.92)"/></g></g><path class="b" d="M137.32,327.28l.008.809c.631-.026.743-.342.759-.662a.143.143,0,0,0-.021-.083.128.128,0,0,0-.088-.034Z" transform="translate(-141.146 -333.972)"/><path class="h" d="M427.6,257.092c.508-.984,1.268-2.483,1.664-3.233.115-.218.177-.363.374-.425.156-.049.392.1.392.1l3.692,2.129a1.156,1.156,0,0,1,.423.393,2.706,2.706,0,0,1-.085,1.051,16.092,16.092,0,0,0-.445,1.809c.209.373,6.31,10.931,6.67,11.554l-.057.033h-4L430.4,260.414l-.056-.1-2.795-1.512s-.63-.4.049-1.713" transform="translate(-418.313 -263.376)"/><path class="d" d="M303.84-.51,305.855-4c.954,1.662,5.935,10.317,6.023,10.445a5.308,5.308,0,0,0,1.28.527,8.362,8.362,0,0,1,1.575.73,1.148,1.148,0,0,1,.336.3.584.584,0,0,1,.064.5,4.992,4.992,0,0,1-.221.627l-1.488-.853a.132.132,0,0,0-.092-.019c-.033.012-.083.1-.085.108-.392.9.107,1.189.555,1.466l.643.37-1.89,3.937s-.265.4-.623.214a.516.516,0,0,1-.276-.668l1-2.339c.033-.065.033-.13,0-.146s-.084.023-.116.088l-1,2.333a.443.443,0,0,1-.526.18.455.455,0,0,1-.325-.584l1-2.346c.032-.064.033-.129,0-.146s-.084.023-.117.088l-1,2.339a.359.359,0,0,1-.493.121.392.392,0,0,1-.233-.518l.961-2.267c.032-.064.033-.13,0-.146s-.084.023-.117.088l-.966,2.273a.3.3,0,0,1-.406.168c-.446-.177-.278-.491-.278-.491a15.461,15.461,0,0,0,.577-2.3,2.4,2.4,0,0,0-.593-1.611Z" transform="translate(-300.318 -17.31)"/><g transform="translate(8.621 -8.701)"><g class="i"><path class="a" d="M422.656,329.963a.429.429,0,0,0-.334-.51l-1.277-.2s-.325-.04-.375.377.246.493.246.493l1.28.2a.388.388,0,0,0,.461-.361" transform="translate(-420.607 -327.16)"/><path class="a" d="M421.388,352.56a.438.438,0,0,0-.338-.5l-1.277-.2s-.293-.03-.373.366a.433.433,0,0,0,.247.481l1.28.2a.393.393,0,0,0,.46-.353" transform="translate(-419.39 -348.774)"/><path class="a" d="M422.131,282.478a.468.468,0,0,0-.334-.533l-1.277-.2a.428.428,0,0,0-.392.387.46.46,0,0,0,.256.536l1.28.2a.414.414,0,0,0,.467-.39" transform="translate(-420.086 -281.75)"/><path class="a" d="M424.691,306.728a.467.467,0,0,0-.334-.532l-1.277-.2a.428.428,0,0,0-.392.387.46.46,0,0,0,.255.536l1.28.2a.414.414,0,0,0,.467-.391" transform="translate(-422.533 -304.93)"/></g></g><path class="h" d="M419.2,327.934a.422.422,0,0,0-.331-.5l-1.268-.19s-.323-.038-.373.375c-.053.428.243.488.243.488l1.271.191a.388.388,0,0,0,.458-.358" transform="translate(-408.693 -333.933)"/><path class="h" d="M417.873,350.319a.432.432,0,0,0-.334-.49l-1.269-.19s-.291-.03-.372.364a.427.427,0,0,0,.244.476l1.271.191a.393.393,0,0,0,.458-.351" transform="translate(-407.422 -355.344)"/><path class="h" d="M418.808,280.926a.462.462,0,0,0-.33-.526l-1.268-.19a.428.428,0,0,0-.391.384.451.451,0,0,0,.252.53l1.271.191a.415.415,0,0,0,.465-.388" transform="translate(-408.302 -288.979)"/><path class="h" d="M421.282,304.927a.46.46,0,0,0-.33-.527l-1.268-.19a.428.428,0,0,0-.391.384.452.452,0,0,0,.252.53l1.269.19a.415.415,0,0,0,.465-.387" transform="translate(-410.668 -311.92)"/><path class="b" d="M446.381,287.233a.139.139,0,0,0,.1.044l.058.009a.319.319,0,0,0,.38-.29.341.341,0,0,0-.277-.406l-.057-.009a.238.238,0,0,0-.126.007c-.044.023-.042.1-.042.1l-.059.432a.161.161,0,0,0,.02.113" transform="translate(-436.547 -295.064)"/><path class="b" d="M447.2,334.013a.137.137,0,0,0,.1.044l.058.009a.319.319,0,0,0,.38-.291.34.34,0,0,0-.277-.406l-.057-.009a.238.238,0,0,0-.126.007c-.044.023-.042.1-.042.1l-.059.433a.159.159,0,0,0,.021.112" transform="translate(-437.332 -339.78)"/><path class="b" d="M446.378,356.132a.13.13,0,0,0,.1.041l.056.009a.3.3,0,0,0,.363-.278.327.327,0,0,0-.265-.389l-.054-.008a.231.231,0,0,0-.12.006c-.042.022-.041.1-.041.1l-.056.413a.151.151,0,0,0,.019.107" transform="translate(-436.545 -360.949)"/><path class="b" d="M449.729,311.481a.136.136,0,0,0,.1.044l.058.009a.318.318,0,0,0,.379-.29.341.341,0,0,0-.276-.406l-.057-.008a.241.241,0,0,0-.126.006c-.044.023-.044.1-.044.1l-.058.432a.159.159,0,0,0,.02.112" transform="translate(-439.746 -318.242)"/><g transform="translate(12.681 -9.053)"><g class="j"><path class="a" d="M511.753,273.77a.167.167,0,0,0-.126.1,1.1,1.1,0,0,0,.326,1.608l.785.483.113-.239s-.128-.078-.3-.173c-.605-.339-.908-.554-.988-.8a1.177,1.177,0,0,1,.1-.883.153.153,0,0,1,.088-.088" transform="translate(-511.407 -273.77)"/></g></g><path class="b" d="M519.674,276.237l-.706-.4c-.293.559-.075.814.193.988a.143.143,0,0,0,.083.023c.044,0,.074-.06.074-.06Z" transform="translate(-505.82 -284.802)"/><path class="h" d="M274.988,520.247c.036-.16.286-.287.286-.287l3.69-2.132a1.17,1.17,0,0,1,.552-.17c.27.023.868.6.868.6a16.194,16.194,0,0,0,1.345,1.291c.318,0,7.128,0,10.9,0l2.036,3.526H281.3L278.6,524.74s-.662.346-1.459-.9c-.6-.932-1.517-2.339-1.968-3.058-.132-.208-.226-.333-.181-.537" transform="translate(-272.729 -515.949)"/><path class="d" d="M-8.763,518.265c.209-.016.764-.583,1.1-.843a8.322,8.322,0,0,1,1.419-1,1.121,1.121,0,0,1,.429-.141.586.586,0,0,1,.466.2,5.051,5.051,0,0,1,.432.506l-1.484.863s-.055.03-.062.07.048.124.051.127c.587.794,1.083.5,1.548.253l.642-.372,2.464,3.606s.211.425-.126.647a.516.516,0,0,1-.717-.095l-1.526-2.033c-.04-.06-.1-.093-.126-.073s-.022.085.017.145l1.524,2.03a.443.443,0,0,1-.107.545.458.458,0,0,1-.67-.008l-1.531-2.039c-.039-.06-.1-.093-.126-.073s-.023.084.017.145l1.527,2.033a.358.358,0,0,1-.142.488.391.391,0,0,1-.565-.058l-1.482-1.965c-.04-.06-.1-.093-.126-.073s-.022.084.018.145l1.487,1.972a.3.3,0,0,1-.057.435c-.377.3-.564,0-.564,0a15.618,15.618,0,0,0-1.705-1.652,2.385,2.385,0,0,0-1.692-.292H-21.16l2.01-3.482c1.964,0,10.237.009,10.387,0" transform="translate(10.341 -514.635)"/><g transform="translate(2.158 5.743)"><g class="k"><path class="l" d="M315.244,632.591a.428.428,0,0,0-.609.035l-.808,1.008s-.2.261.139.513.55.034.55.034l.81-1.011a.389.389,0,0,0-.082-.579" transform="translate(-311.967 -631.447)"/><path class="l" d="M334.35,644.886a.438.438,0,0,0-.6.044l-.809,1.01s-.173.238.132.506a.434.434,0,0,0,.541.026l.81-1.01a.391.391,0,0,0-.075-.574" transform="translate(-330.248 -643.207)"/><path class="l" d="M274.405,609.185a.468.468,0,0,0-.628.022l-.808,1.008a.429.429,0,0,0,.138.533.457.457,0,0,0,.592.044l.81-1.011a.414.414,0,0,0-.1-.6" transform="translate(-272.928 -609.076)"/><path class="l" d="M296.688,619.1a.468.468,0,0,0-.628.022l-.808,1.008a.428.428,0,0,0,.139.533.46.46,0,0,0,.592.046l.81-1.011a.414.414,0,0,0-.1-.6" transform="translate(-294.227 -618.549)"/></g></g><path class="h" d="M311.76,634.711a.421.421,0,0,0-.6.034l-.8,1s-.2.26.138.511.544.033.544.033l.8-1.005a.388.388,0,0,0-.081-.576" transform="translate(-306.496 -627.732)"/><path class="h" d="M330.67,646.958a.432.432,0,0,0-.591.044l-.8,1s-.171.237.129.5a.427.427,0,0,0,.535.026l.8-1.006a.4.4,0,0,0-.074-.574" transform="translate(-324.589 -639.446)"/><path class="h" d="M271.4,611.428a.46.46,0,0,0-.621.023l-.8,1a.427.427,0,0,0,.137.529.451.451,0,0,0,.585.044l.8-1.005a.414.414,0,0,0-.1-.6" transform="translate(-267.914 -605.478)"/><path class="h" d="M293.422,621.288a.46.46,0,0,0-.621.023l-.8,1a.426.426,0,0,0,.138.529.453.453,0,0,0,.584.047l.8-1.006a.413.413,0,0,0-.1-.6" transform="translate(-288.964 -614.903)"/><path class="b" d="M288.52,614.833a.136.136,0,0,0,.088-.066l.037-.046a.319.319,0,0,0-.062-.474.343.343,0,0,0-.49.037l-.036.044a.242.242,0,0,0-.057.113c0,.049.067.088.067.088l.346.267a.157.157,0,0,0,.107.038" transform="translate(-285.177 -608.19)"/><path class="b" d="M329.44,637.53a.137.137,0,0,0,.088-.067l.037-.044a.319.319,0,0,0-.062-.474.341.341,0,0,0-.49.037l-.036.044a.241.241,0,0,0-.057.112c0,.049.067.088.067.088l.346.265a.158.158,0,0,0,.107.038" transform="translate(-324.291 -629.886)"/><path class="b" d="M348.157,649.626a.129.129,0,0,0,.084-.063l.035-.044a.3.3,0,0,0-.059-.454.326.326,0,0,0-.469.035l-.034.044a.226.226,0,0,0-.055.107c0,.047.064.084.064.084l.331.255a.149.149,0,0,0,.1.037" transform="translate(-342.204 -641.475)"/><path class="b" d="M311.2,624.063a.137.137,0,0,0,.088-.067l.037-.044a.318.318,0,0,0-.062-.474.341.341,0,0,0-.49.037l-.036.044a.238.238,0,0,0-.057.112c0,.049.067.088.067.088l.346.265a.16.16,0,0,0,.107.039" transform="translate(-306.856 -617.014)"/><g transform="translate(3.87 3.266)"><g class="m"><path class="l" d="M311.774,553a.169.169,0,0,0,.023.159,1.1,1.1,0,0,0,1.555.522l.811-.439-.15-.218s-.132.072-.3.172c-.6.353-.934.51-1.191.454a1.171,1.171,0,0,1-.716-.529.154.154,0,0,1-.032-.121" transform="translate(-311.762 -552.998)"/></g></g><path class="b" d="M315.837,542.27l-.7.411c.338.534.668.473.953.327a.141.141,0,0,0,.061-.06.125.125,0,0,0-.014-.094Z" transform="translate(-311.119 -539.475)"/></g><g class="n" transform="translate(1.692 6.983)"><path class="d" d="M389.076,193.44a2.7,2.7,0,0,1-.085,1.051,16.2,16.2,0,0,0-.445,1.809c.2.348,5.5,9.535,6.519,11.293l.007.011H391l-.007-.011-5.658-9.8-.056-.1-2.795-1.512s-.63-.4.049-1.713c.507-.984,1.268-2.483,1.664-3.233.115-.218.176-.363.374-.425.156-.049.392.1.392.1l3.691,2.129a1.156,1.156,0,0,1,.423.393" transform="translate(-367.043 -189.368)"/><path class="e" d="M263.714-61.2a5.31,5.31,0,0,0,1.28.527,8.337,8.337,0,0,1,1.574.73,1.146,1.146,0,0,1,.336.3.586.586,0,0,1,.064.5,5.1,5.1,0,0,1-.221.627l-1.489-.853a.132.132,0,0,0-.092-.019c-.032.012-.083.1-.085.108-.392.9.107,1.189.555,1.467l.636.37-1.89,3.937s-.263.4-.623.214a.516.516,0,0,1-.277-.668l1-2.339c.032-.065.032-.13,0-.146s-.084.023-.117.088l-.994,2.334a.444.444,0,0,1-.525.18.458.458,0,0,1-.327-.584l1-2.346c.032-.065.032-.13,0-.146s-.084.023-.117.088l-1,2.339a.359.359,0,0,1-.493.121.392.392,0,0,1-.233-.518l.961-2.266c.032-.064.033-.13,0-.146s-.084.023-.116.088l-.964,2.273a.3.3,0,0,1-.406.167c-.446-.177-.278-.491-.278-.491a15.5,15.5,0,0,0,.578-2.3,2.388,2.388,0,0,0-.594-1.61l-5.328-9.229,2.006-3.474c1.147,1.991,6.089,10.552,6.178,10.679" transform="translate(-245.946 61.725)"/><g transform="translate(13.35 2.176)"><g class="o" transform="translate(0 0)"><path class="a" d="M377.6,267.352a.429.429,0,0,0-.334-.51l-1.277-.2s-.325-.041-.375.377.246.493.246.493l1.28.2a.388.388,0,0,0,.46-.361" transform="translate(-374.072 -264.038)"/><path class="a" d="M376.312,289.949a.438.438,0,0,0-.335-.5l-1.28-.2s-.293-.031-.373.366a.435.435,0,0,0,.248.482l1.28.2a.392.392,0,0,0,.46-.353" transform="translate(-372.838 -285.652)"/><path class="a" d="M377.068,219.858a.468.468,0,0,0-.334-.533l-1.277-.2a.428.428,0,0,0-.392.387.459.459,0,0,0,.255.536l1.28.2a.414.414,0,0,0,.467-.391" transform="translate(-373.548 -218.62)"/><path class="a" d="M379.631,244.108a.468.468,0,0,0-.334-.533l-1.277-.2a.428.428,0,0,0-.392.387.459.459,0,0,0,.255.535l1.28.2a.414.414,0,0,0,.467-.391" transform="translate(-375.997 -241.799)"/></g></g><path class="d" d="M374.127,265.333a.422.422,0,0,0-.331-.5l-1.268-.19s-.323-.039-.374.375.243.485.243.485l1.272.191a.388.388,0,0,0,.458-.358" transform="translate(-357.419 -259.943)"/><path class="d" d="M372.81,287.67a.431.431,0,0,0-.334-.49l-1.268-.191s-.291-.03-.372.364a.427.427,0,0,0,.244.476l1.271.19a.392.392,0,0,0,.458-.35" transform="translate(-356.155 -281.308)"/><path class="d" d="M373.748,218.306a.461.461,0,0,0-.33-.526l-1.268-.19a.428.428,0,0,0-.391.384.451.451,0,0,0,.252.53l1.271.19a.415.415,0,0,0,.466-.388" transform="translate(-357.037 -214.972)"/><path class="d" d="M376.22,242.307a.463.463,0,0,0-.33-.527l-1.268-.19a.428.428,0,0,0-.391.384.452.452,0,0,0,.252.53l1.273.19a.415.415,0,0,0,.466-.387" transform="translate(-359.4 -237.913)"/><path class="b" d="M401.28,224.617a.136.136,0,0,0,.1.044l.058.009a.318.318,0,0,0,.38-.29.342.342,0,0,0-.277-.406l-.057-.008a.242.242,0,0,0-.126.007c-.044.023-.044.1-.044.1l-.058.432a.158.158,0,0,0,.02.112" transform="translate(-385.241 -221.06)"/><path class="b" d="M402.1,271.383a.139.139,0,0,0,.1.044l.058.009a.319.319,0,0,0,.38-.29.341.341,0,0,0-.277-.406l-.056-.009a.24.24,0,0,0-.126.007c-.044.023-.044.1-.044.1l-.058.433a.158.158,0,0,0,.02.112" transform="translate(-386.024 -265.763)"/><path class="b" d="M401.324,293.512a.132.132,0,0,0,.1.042l.056.008a.305.305,0,0,0,.364-.278.327.327,0,0,0-.265-.389l-.054-.008a.229.229,0,0,0-.12.006c-.044.022-.041.1-.041.1l-.056.414a.148.148,0,0,0,.019.107" transform="translate(-385.286 -286.941)"/><path class="b" d="M404.688,248.852a.136.136,0,0,0,.1.044l.058.008a.318.318,0,0,0,.38-.29.341.341,0,0,0-.277-.406l-.057-.008a.241.241,0,0,0-.126.006c-.044.023-.042.1-.042.1l-.059.432a.158.158,0,0,0,.02.113" transform="translate(-388.501 -244.225)"/><g transform="translate(18.478 2.304)"><g class="p" transform="translate(0 0)"><path class="a" d="M466.675,211.15a.167.167,0,0,0-.126.1,1.1,1.1,0,0,0,.326,1.608l.785.483.113-.239s-.127-.078-.3-.173c-.605-.339-.908-.554-.988-.8a1.177,1.177,0,0,1,.1-.883.155.155,0,0,1,.088-.088" transform="translate(-465.921 -211.12)"/></g></g><path class="b" d="M474.6,213.627l-.706-.4c-.293.56-.075.815.193.988a.145.145,0,0,0,.083.023c.044,0,.074-.06.074-.06Z" transform="translate(-454.543 -210.804)"/><path class="h" d="M-52.03,454.473c.6.931,1.517,2.339,1.968,3.058.132.208.226.334.181.537-.036.159-.286.287-.286.287l-3.688,2.132a1.163,1.163,0,0,1-.552.17c-.27-.023-.868-.6-.868-.6a16.123,16.123,0,0,0-1.345-1.291c-.428,0-12.62,0-13.34,0V458.7l2-3.461h11.768l2.707-1.665s.662-.346,1.459.9" transform="translate(65.181 -440.502)"/><path class="d" d="M257.463,447.513l2.015,3.49c-1.917,0-11.9-.018-12.058-.006-.209.016-.764.583-1.1.842a8.34,8.34,0,0,1-1.42,1,1.116,1.116,0,0,1-.429.14.586.586,0,0,1-.466-.2,5.049,5.049,0,0,1-.432-.506l1.484-.861s.055-.03.062-.07-.049-.124-.051-.127c-.587-.794-1.083-.5-1.548-.253l-.642.372-2.464-3.606s-.211-.425.126-.646a.516.516,0,0,1,.717.094l1.526,2.03c.04.06.1.093.126.073s.023-.085-.017-.145l-1.524-2.03a.443.443,0,0,1,.107-.545.458.458,0,0,1,.67.008l1.531,2.039c.039.06.1.093.126.073s.022-.085-.018-.145l-1.527-2.033a.358.358,0,0,1,.142-.488.392.392,0,0,1,.565.057l1.483,1.965c.04.06.1.093.126.073s.022-.084-.017-.145L243.074,446a.3.3,0,0,1,.058-.435c.377-.3.564,0,.564,0a15.592,15.592,0,0,0,1.705,1.651,2.386,2.386,0,0,0,1.692.292Z" transform="translate(-231.439 -432.762)"/><g transform="translate(10.908 12.536)"><g class="q" transform="translate(0 0)"><path class="a" d="M309.226,461.285a.428.428,0,0,0,.609-.034l.808-1.008s.2-.261-.139-.513-.55-.034-.55-.034l-.81,1.011a.389.389,0,0,0,.082.579" transform="translate(-308.01 -458.842)"/><path class="a" d="M290.67,449.416a.438.438,0,0,0,.6-.044l.808-1.008s.173-.238-.132-.506a.433.433,0,0,0-.541-.026l-.81,1.01a.391.391,0,0,0,.075.574" transform="translate(-290.28 -447.509)"/><path class="a" d="M349.7,484.451a.468.468,0,0,0,.628-.023l.808-1.008a.428.428,0,0,0-.139-.533.461.461,0,0,0-.592-.044l-.81,1.01a.414.414,0,0,0,.1.6" transform="translate(-346.683 -480.974)"/><path class="a" d="M327.422,474.505a.468.468,0,0,0,.628-.023l.808-1.008a.428.428,0,0,0-.139-.533.459.459,0,0,0-.592-.046l-.81,1.01a.415.415,0,0,0,.1.6" transform="translate(-325.39 -471.465)"/></g></g><path class="h" d="M313.115,459.352a.421.421,0,0,0,.6-.034l.8-1s.2-.26-.138-.511-.544-.034-.544-.034l-.8,1.005a.388.388,0,0,0,.081.576" transform="translate(-300.822 -444.467)"/><path class="h" d="M294.87,447.539a.431.431,0,0,0,.591-.044l.8-1s.171-.237-.129-.5a.428.428,0,0,0-.535-.026l-.8,1.005a.394.394,0,0,0,.075.574" transform="translate(-283.392 -433.186)"/><path class="h" d="M353.129,482.4a.461.461,0,0,0,.621-.022l.8-1a.427.427,0,0,0-.138-.53.451.451,0,0,0-.584-.044l-.8,1a.414.414,0,0,0,.1.6" transform="translate(-339.057 -466.488)"/><path class="h" d="M331.109,472.527a.46.46,0,0,0,.621-.022l.8-1a.427.427,0,0,0-.137-.53.453.453,0,0,0-.585-.046l-.8,1.006a.414.414,0,0,0,.1.6" transform="translate(-318.009 -457.048)"/><path class="b" d="M356.055,503.181a.137.137,0,0,0-.088.067l-.037.044a.319.319,0,0,0,.062.474.341.341,0,0,0,.49-.037l.036-.044a.235.235,0,0,0,.057-.112c0-.049-.067-.088-.067-.088l-.345-.267a.159.159,0,0,0-.107-.038" transform="translate(-341.84 -487.959)"/><path class="b" d="M315.125,480.539a.136.136,0,0,0-.088.067l-.037.044a.319.319,0,0,0,.062.474.341.341,0,0,0,.49-.037l.036-.044a.239.239,0,0,0,.057-.112c0-.049-.067-.088-.067-.088l-.345-.266a.159.159,0,0,0-.108-.038" transform="translate(-302.716 -466.317)"/><path class="b" d="M297.094,468.98a.132.132,0,0,0-.084.064l-.035.044a.3.3,0,0,0,.059.454.327.327,0,0,0,.469-.035l.034-.044a.226.226,0,0,0,.055-.107c0-.047-.064-.084-.064-.084l-.33-.255a.151.151,0,0,0-.1-.037" transform="translate(-285.489 -455.268)"/><path class="b" d="M333.38,494a.137.137,0,0,0-.088.067l-.037.046a.318.318,0,0,0,.062.474.341.341,0,0,0,.49-.037l.036-.044a.239.239,0,0,0,.057-.112c0-.049-.067-.088-.067-.088l-.346-.265a.159.159,0,0,0-.107-.039" transform="translate(-320.165 -479.185)"/><g transform="translate(11.232 17.203)"><g class="r" transform="translate(0 0)"><path class="a" d="M296.559,561.735a.168.168,0,0,0-.023-.159,1.1,1.1,0,0,0-1.555-.522l-.811.438.15.218s.132-.071.3-.171c.6-.353.934-.51,1.191-.454a1.169,1.169,0,0,1,.716.529.154.154,0,0,1,.034.123" transform="translate(-294.113 -560.339)"/></g></g><path class="b" d="M322.413,572.241l.7-.411c-.338-.534-.668-.472-.953-.327a.144.144,0,0,0-.061.06.126.126,0,0,0,.015.094Z" transform="translate(-309.572 -553.171)"/><path class="b" d="M80.566-58.981a5.392,5.392,0,0,0,.182,1.368,8.314,8.314,0,0,1,.155,1.728,1.127,1.127,0,0,1-.093.441.585.585,0,0,1-.4.305,5.065,5.065,0,0,1-.654.121l-.005-1.716a.132.132,0,0,0-.03-.088.311.311,0,0,0-.135-.019c-.98.112-.976.687-.993,1.213v.742l-4.355.331s-.473-.03-.5-.432a.517.517,0,0,1,.441-.574l2.523-.3c.072,0,.129-.037.127-.072s-.062-.062-.132-.057l-2.52.306a.443.443,0,0,1-.418-.364c-.067-.513.342-.576.342-.576l2.532-.308c.072,0,.128-.037.127-.072s-.062-.062-.132-.057l-2.524.306a.361.361,0,0,1-.353-.367.388.388,0,0,1,.332-.458l2.443-.3c.072,0,.128-.037.126-.072s-.062-.061-.132-.057l-2.453.3a.3.3,0,0,1-.348-.267c-.069-.475.286-.485.286-.485a15.489,15.489,0,0,0,2.283-.651A2.4,2.4,0,0,0,77.393-60.4L83.747-71.46l2.01,3.482c-.984,1.7-5.125,8.86-5.191,9" transform="translate(-72.149 61.324)"/><g transform="translate(1.263 0.114)"><g class="s" transform="translate(0 0)"><path class="l" d="M99.356,208.22a.428.428,0,0,0,.274-.545l-.47-1.2s-.128-.3-.514-.136-.3.459-.3.459l.47,1.207a.39.39,0,0,0,.543.221" transform="translate(-96.948 -204.28)"/><path class="l" d="M79.835,218.687a.438.438,0,0,0,.26-.54l-.469-1.2s-.12-.269-.5-.14a.435.435,0,0,0-.293.455l.47,1.207a.391.391,0,0,0,.536.221" transform="translate(-78.304 -214.3)"/><path class="l" d="M139.608,184.481a.468.468,0,0,0,.295-.556l-.469-1.2a.427.427,0,0,0-.53-.146.459.459,0,0,0-.336.489l.471,1.207a.414.414,0,0,0,.571.21" transform="translate(-135.406 -181.582)"/><path class="l" d="M119.888,198.811a.468.468,0,0,0,.295-.555l-.469-1.2a.427.427,0,0,0-.53-.146.459.459,0,0,0-.336.489l.47,1.207a.412.412,0,0,0,.571.209" transform="translate(-116.556 -195.279)"/></g></g><path class="d" d="M99.5,204.245a.421.421,0,0,0,.271-.539l-.47-1.191s-.128-.3-.511-.136-.3.454-.3.454l.471,1.2a.388.388,0,0,0,.54.218" transform="translate(-95.824 -200.385)"/><path class="d" d="M80.149,214.57a.431.431,0,0,0,.257-.534l-.47-1.191s-.12-.265-.5-.14a.426.426,0,0,0-.29.449l.471,1.2a.391.391,0,0,0,.532.221" transform="translate(-77.344 -210.27)"/><path class="d" d="M139.4,180.855a.46.46,0,0,0,.291-.549l-.469-1.191a.429.429,0,0,0-.53-.147.454.454,0,0,0-.332.485l.471,1.2a.414.414,0,0,0,.568.209" transform="translate(-133.94 -178.021)"/><path class="d" d="M119.8,195a.46.46,0,0,0,.291-.549l-.47-1.191a.429.429,0,0,0-.53-.146.451.451,0,0,0-.333.483l.471,1.2a.414.414,0,0,0,.568.21" transform="translate(-115.205 -191.542)"/><path class="b" d="M149.869,206.173a.135.135,0,0,0,.013.109l.022.055a.319.319,0,0,0,.441.184.34.34,0,0,0,.213-.441l-.021-.053a.238.238,0,0,0-.068-.106c-.041-.026-.109.015-.109.015l-.4.164a.158.158,0,0,0-.088.074" transform="translate(-144.942 -203.81)"/><path class="b" d="M109.76,230.273a.139.139,0,0,0,.014.11l.021.054a.319.319,0,0,0,.441.184.34.34,0,0,0,.213-.441l-.021-.053a.24.24,0,0,0-.069-.105c-.041-.026-.109.015-.109.015l-.4.165a.16.16,0,0,0-.088.074" transform="translate(-106.604 -226.846)"/><path class="b" d="M90.694,240.582a.132.132,0,0,0,.013.105l.02.053a.305.305,0,0,0,.423.176.326.326,0,0,0,.2-.424l-.02-.051a.228.228,0,0,0-.066-.1c-.04-.025-.105.014-.105.014l-.387.159a.152.152,0,0,0-.083.069" transform="translate(-88.378 -236.71)"/><path class="b" d="M130.552,221.212a.135.135,0,0,0,.014.109l.022.055a.319.319,0,0,0,.441.184.339.339,0,0,0,.213-.441l-.021-.053a.241.241,0,0,0-.069-.105c-.041-.026-.109.014-.109.014l-.4.166a.158.158,0,0,0-.088.074" transform="translate(-126.477 -218.184)"/><g transform="translate(5.715 4.054)"><g class="t" transform="translate(0 0)"><path class="l" d="M179.745,259.323a.167.167,0,0,0-.149-.06,1.1,1.1,0,0,0-1.23,1.086l-.026.921.265-.021s0-.15,0-.345c-.009-.694.025-1.063.2-1.258a1.174,1.174,0,0,1,.815-.357.153.153,0,0,1,.123.033" transform="translate(-177.877 -258.859)"/></g></g><path class="b" d="M193.322,264.879l-.007-.809c-.631.026-.743.342-.759.662a.143.143,0,0,0,.021.083.127.127,0,0,0,.088.034Z" transform="translate(-185.751 -259.401)"/></g><path class="b" d="M346.908,276.747c1.8-.047,3.665-.1,5.489-.106,4.091-.028,5.755-2.047,6.436-3.228s1.55-3.723-.471-7.277c-.9-1.589-1.794-3.226-2.655-4.81-.273-.5-.57-.965-.838-1.456a14.362,14.362,0,0,0-3.265,1.35c1.184,2.162,2.4,4.452,3.676,6.685.885,1.556,1.031,2.847.509,3.751s-1.742,1.468-3.53,1.48c-2.676.015-5.279.013-7.907.12a14.37,14.37,0,0,0,.331,3.508C345.382,276.748,346.183,276.766,346.908,276.747Z" transform="translate(-329.151 -248.403)"/><g class="u" transform="translate(19.118 7.055)"><path class="d" d="M28.764,453.4c-.27-.023-.868-.6-.868-.6a15.974,15.974,0,0,0-1.344-1.29c-.4,0-11.008,0-13.039,0H13.5l2.036-3.53H26.977l2.707-1.664s.662-.346,1.459.9c.6.932,1.517,2.339,1.968,3.058.132.208.227.333.181.537-.036.159-.286.287-.286.287l-3.69,2.136a1.17,1.17,0,0,1-.552.17" transform="translate(-32.023 -433.638)"/><path class="e" d="M324.369,443.835c-.208.016-.763.583-1.1.843a8.3,8.3,0,0,1-1.42,1,1.116,1.116,0,0,1-.429.14.588.588,0,0,1-.466-.2,5.029,5.029,0,0,1-.432-.506l1.484-.862s.055-.03.062-.07-.048-.124-.05-.127c-.588-.792-1.083-.5-1.548-.253l-.643.373-2.464-3.606s-.211-.425.126-.646a.516.516,0,0,1,.717.094l1.526,2.033c.04.06.1.093.126.073s.022-.085-.017-.145l-1.524-2.03a.442.442,0,0,1,.107-.544.457.457,0,0,1,.67.008l1.531,2.039c.04.06.1.093.126.073s.022-.085-.018-.145l-1.527-2.033a.356.356,0,0,1,.142-.485.391.391,0,0,1,.565.057l1.483,1.965c.039.06.1.093.126.073s.022-.084-.018-.145l-1.488-1.973a.3.3,0,0,1,.058-.435c.377-.3.564,0,.564,0a15.587,15.587,0,0,0,1.706,1.651,2.377,2.377,0,0,0,1.691.289H334.7l2.006,3.472c-2.3,0-12.184,0-12.336.011" transform="translate(-322.421 -425.99)"/><g transform="translate(-3.268 11.468)"><g class="v" transform="translate(0 0)"><path class="a" d="M386.128,454.079a.428.428,0,0,0,.609-.034l.808-1.008s.2-.262-.139-.513-.55-.034-.55-.034l-.81,1.01a.389.389,0,0,0,.082.579" transform="translate(-384.769 -450.957)"/><path class="a" d="M367.662,442.211a.438.438,0,0,0,.6-.044l.808-1.008s.173-.238-.13-.506a.435.435,0,0,0-.541-.026l-.809,1.011a.391.391,0,0,0,.075.574" transform="translate(-367.126 -439.624)"/><path class="a" d="M426.648,477.2a.468.468,0,0,0,.628-.023l.808-1.008a.428.428,0,0,0-.139-.533.459.459,0,0,0-.592-.047l-.81,1.011a.414.414,0,0,0,.1.6" transform="translate(-423.488 -473.042)"/><path class="a" d="M404.368,467.3a.468.468,0,0,0,.628-.022l.808-1.008a.428.428,0,0,0-.139-.533.46.46,0,0,0-.591-.044l-.81,1.01a.414.414,0,0,0,.1.6" transform="translate(-402.191 -463.584)"/></g></g><path class="d" d="M390.061,452.138a.421.421,0,0,0,.6-.035l.8-1s.2-.26-.138-.511-.544-.034-.544-.034l-.8,1.006a.388.388,0,0,0,.081.576" transform="translate(-391.799 -437.641)"/><path class="d" d="M371.776,440.322a.431.431,0,0,0,.591-.044l.8-1s.171-.237-.129-.5a.426.426,0,0,0-.534-.026l-.8,1.006a.394.394,0,0,0,.074.574" transform="translate(-374.329 -426.358)"/><path class="d" d="M430.075,475.177a.46.46,0,0,0,.621-.022l.8-1a.426.426,0,0,0-.138-.529.452.452,0,0,0-.584-.046l-.8,1.006a.414.414,0,0,0,.1.6" transform="translate(-430.035 -459.652)"/><path class="d" d="M408.055,465.317a.46.46,0,0,0,.621-.023l.8-1a.426.426,0,0,0-.138-.53.452.452,0,0,0-.584-.046l-.8,1.006a.414.414,0,0,0,.1.6" transform="translate(-408.986 -450.227)"/><path class="b" d="M433,495.951a.136.136,0,0,0-.088.067l-.037.044a.318.318,0,0,0,.061.474.341.341,0,0,0,.49-.037l.036-.044a.242.242,0,0,0,.057-.113c0-.049-.068-.088-.068-.088l-.345-.267a.158.158,0,0,0-.107-.038" transform="translate(-432.819 -481.119)"/><path class="b" d="M392.083,473.319a.137.137,0,0,0-.088.067l-.037.044a.319.319,0,0,0,.061.474.341.341,0,0,0,.49-.037l.036-.044a.24.24,0,0,0,.057-.113c0-.049-.067-.088-.067-.088l-.344-.265a.158.158,0,0,0-.107-.039" transform="translate(-393.704 -459.488)"/><path class="b" d="M374.044,461.8a.133.133,0,0,0-.085.064l-.035.044a.3.3,0,0,0,.059.454.327.327,0,0,0,.469-.035l.034-.044a.229.229,0,0,0,.055-.107c0-.047-.065-.084-.065-.084l-.33-.255a.15.15,0,0,0-.1-.037" transform="translate(-376.47 -448.476)"/><path class="b" d="M410.325,486.8a.137.137,0,0,0-.088.067l-.037.044a.319.319,0,0,0,.062.474.341.341,0,0,0,.49-.037l.036-.044a.237.237,0,0,0,.057-.112c0-.049-.068-.088-.068-.088l-.345-.265a.159.159,0,0,0-.107-.039" transform="translate(-411.142 -472.374)"/><g transform="translate(-2.742 16.964)"><g class="w" transform="translate(0 0)"><path class="a" d="M373.509,554.52a.168.168,0,0,0-.023-.159,1.1,1.1,0,0,0-1.555-.522l-.811.437.15.218s.132-.071.3-.171c.6-.353.934-.51,1.191-.454a1.17,1.17,0,0,1,.716.529.156.156,0,0,1,.034.123" transform="translate(-371.12 -553.274)"/></g></g><path class="b" d="M399.361,565.03l.7-.411c-.338-.534-.668-.473-.953-.327a.142.142,0,0,0-.061.06.127.127,0,0,0,.014.094Z" transform="translate(-400.551 -546.35)"/><path class="h" d="M172.77-61.575c-1.106.052-2.784.144-3.632.177-.246.009-.4.03-.555-.112-.12-.111-.105-.391-.105-.391v-4.262a1.166,1.166,0,0,1,.129-.563c.154-.221.952-.452.952-.452a16.173,16.173,0,0,0,1.79-.519c.218-.368,6.31-10.929,6.671-11.553l.057.034,2,3.46-5.827,10.093-.056.1.088,3.177s-.031.745-1.507.814" transform="translate(-180.161 68.698)"/><path class="d" d="M17.32,243.01H13.29c.963-1.657,5.967-10.3,6.033-10.44a5.309,5.309,0,0,0-.182-1.368,8.365,8.365,0,0,1-.155-1.729,1.133,1.133,0,0,1,.093-.441.586.586,0,0,1,.4-.306,5.113,5.113,0,0,1,.654-.121l.005,1.716a.132.132,0,0,0,.03.088.325.325,0,0,0,.135.019c.98-.113.976-.687.993-1.214v-.743l4.355-.332s.474.03.5.433a.516.516,0,0,1-.441.574l-2.524.306c-.072,0-.128.037-.127.072s.062.062.132.057l2.518-.306a.443.443,0,0,1,.418.365c.067.512-.342.576-.342.576l-2.532.306c-.072,0-.128.037-.126.072s.062.062.132.057l2.524-.306a.36.36,0,0,1,.353.366.391.391,0,0,1-.332.461l-2.443.3c-.072,0-.129.037-.126.072s.062.061.132.058l2.453-.3a.3.3,0,0,1,.348.267c.069.475-.286.485-.286.485a15.5,15.5,0,0,0-2.278.652,2.389,2.389,0,0,0-1.1,1.319Z" transform="translate(-31.822 -225.128)"/><g transform="translate(-10.234 4.964)"><g class="x" transform="translate(0 0)"><path class="a" d="M251.215,288.808a.428.428,0,0,0-.275.545l.467,1.2s.128.3.514.136.3-.459.3-.459l-.47-1.207a.388.388,0,0,0-.542-.218" transform="translate(-248.731 -288.042)"/><path class="a" d="M271.472,278.831a.438.438,0,0,0-.26.54l.469,1.2s.12.269.5.14a.434.434,0,0,0,.293-.455l-.47-1.207a.392.392,0,0,0-.536-.221" transform="translate(-268.112 -278.512)"/><path class="a" d="M210.315,312.252a.468.468,0,0,0-.294.556l.469,1.2a.427.427,0,0,0,.53.146.459.459,0,0,0,.336-.489l-.471-1.207a.416.416,0,0,0-.574-.21" transform="translate(-209.624 -310.445)"/><path class="a" d="M229.983,297.928a.467.467,0,0,0-.294.555l.469,1.2a.427.427,0,0,0,.53.146.459.459,0,0,0,.336-.489l-.47-1.206a.416.416,0,0,0-.574-.21" transform="translate(-228.424 -296.753)"/></g></g><path class="h" d="M251.193,293.187a.421.421,0,0,0-.271.539l.469,1.191s.128.3.511.136.3-.454.3-.454l-.471-1.2a.388.388,0,0,0-.54-.218" transform="translate(-258.948 -287.263)"/><path class="h" d="M271.282,283.356a.431.431,0,0,0-.257.534l.47,1.191s.12.267.5.14a.428.428,0,0,0,.29-.45l-.47-1.2a.392.392,0,0,0-.533-.221" transform="translate(-278.167 -277.872)"/><path class="h" d="M210.576,316.28a.46.46,0,0,0-.291.549l.47,1.191a.429.429,0,0,0,.53.146.45.45,0,0,0,.332-.483l-.471-1.2a.413.413,0,0,0-.568-.209" transform="translate(-220.111 -309.331)"/><path class="h" d="M230.126,302.207a.46.46,0,0,0-.291.549l.469,1.191a.429.429,0,0,0,.53.146.451.451,0,0,0,.332-.483l-.472-1.193a.414.414,0,0,0-.568-.209" transform="translate(-238.798 -295.882)"/><path class="b" d="M213.812,319.814a.136.136,0,0,0-.014-.109l-.022-.055a.319.319,0,0,0-.441-.184.339.339,0,0,0-.213.441l.021.053a.237.237,0,0,0,.068.105c.042.026.109-.015.109-.015l.4-.165a.16.16,0,0,0,.088-.074" transform="translate(-222.818 -312.395)"/><path class="b" d="M253.912,295.754a.136.136,0,0,0-.014-.109l-.021-.055a.319.319,0,0,0-.441-.184.339.339,0,0,0-.213.441l.021.053a.238.238,0,0,0,.068.105c.044.026.109-.015.109-.015l.4-.165a.159.159,0,0,0,.088-.074" transform="translate(-261.148 -289.397)"/><path class="b" d="M273.628,286.054a.132.132,0,0,0-.013-.105l-.021-.052a.305.305,0,0,0-.422-.177.327.327,0,0,0-.2.424l.02.051a.232.232,0,0,0,.066.1c.04.025.105-.014.105-.014l.386-.159a.152.152,0,0,0,.083-.07" transform="translate(-280.023 -280.14)"/><path class="b" d="M233.107,304.82a.136.136,0,0,0-.014-.109l-.022-.055a.319.319,0,0,0-.441-.184.34.34,0,0,0-.214.441l.021.053a.236.236,0,0,0,.068.106c.041.026.11-.014.11-.014l.4-.166a.16.16,0,0,0,.088-.074" transform="translate(-241.261 -298.063)"/><g transform="translate(-12.211 3.22)"><g class="y" transform="translate(0 0)"><path class="a" d="M169,237.028a.169.169,0,0,0,.149.06,1.1,1.1,0,0,0,1.23-1.086l.026-.921-.265.021s0,.149,0,.345c.009.694-.026,1.063-.2,1.258a1.177,1.177,0,0,1-.815.356.155.155,0,0,1-.123-.033" transform="translate(-168.451 -234.981)"/></g></g><path class="b" d="M169.21,257.46l.008.809c.631-.026.743-.342.76-.662a.143.143,0,0,0-.022-.083.125.125,0,0,0-.088-.035Z" transform="translate(-180.862 -253.154)"/><path class="h" d="M348.857-60.543c-.156.049-.391-.1-.391-.1l-3.692-2.129a1.156,1.156,0,0,1-.423-.393,2.706,2.706,0,0,1,.085-1.051,16.192,16.192,0,0,0,.446-1.809c-.156-.278-3.562-6.175-5.451-9.445L341.466-79l6.627,11.477.056.1,2.795,1.512s.63.4-.049,1.713c-.507.983-1.268,2.483-1.664,3.233-.115.218-.177.363-.374.425" transform="translate(-343.571 68.459)"/><path class="d" d="M476.618,187.8a5.326,5.326,0,0,0-1.277-.527,8.362,8.362,0,0,1-1.575-.73,1.148,1.148,0,0,1-.336-.3.586.586,0,0,1-.064-.5,5.082,5.082,0,0,1,.221-.627l1.489.853a.133.133,0,0,0,.092.019c.032-.011.083-.1.084-.107.393-.905-.107-1.189-.555-1.467l-.641-.371,1.891-3.937s.265-.4.623-.214a.515.515,0,0,1,.277.668l-1,2.339c-.033.064-.033.13,0,.146s.084-.023.117-.088l.994-2.334a.443.443,0,0,1,.525-.18.457.457,0,0,1,.327.585l-1,2.345c-.033.064-.033.13,0,.146s.084-.023.117-.088l1-2.339a.358.358,0,0,1,.493-.12.391.391,0,0,1,.233.518l-.96,2.267c-.032.064-.032.13,0,.146s.084-.023.117-.088l.965-2.274a.3.3,0,0,1,.406-.168c.446.177.279.491.279.491a15.317,15.317,0,0,0-.58,2.3,2.4,2.4,0,0,0,.593,1.611l6.363,11.018h-4.02c-.979-1.7-5.11-8.869-5.2-8.995" transform="translate(-471.572 -178.956)"/><g transform="translate(4.451 1.908)"><g class="z" transform="translate(0 0)"><path class="l" d="M567.724,239.715a.429.429,0,0,0,.335.51l1.277.2s.325.04.375-.377-.246-.493-.246-.493l-1.28-.2a.389.389,0,0,0-.461.361" transform="translate(-566.237 -237.751)"/><path class="l" d="M568.852,217.613a.438.438,0,0,0,.338.5l1.277.195s.293.031.373-.366a.435.435,0,0,0-.248-.481l-1.28-.2a.393.393,0,0,0-.46.353" transform="translate(-567.314 -216.632)"/><path class="l" d="M567.857,286.168a.469.469,0,0,0,.334.533l1.28.2a.427.427,0,0,0,.392-.387.459.459,0,0,0-.255-.536l-1.28-.2a.414.414,0,0,0-.467.39" transform="translate(-566.366 -282.129)"/><path class="l" d="M565.306,261.918a.468.468,0,0,0,.334.533l1.28.2a.428.428,0,0,0,.392-.387.462.462,0,0,0-.256-.536l-1.28-.2a.414.414,0,0,0-.467.39" transform="translate(-563.928 -258.949)"/></g></g><path class="h" d="M571.482,242.048a.422.422,0,0,0,.331.5l1.268.19s.323.039.374-.374-.243-.485-.243-.485l-1.271-.193a.389.389,0,0,0-.459.358" transform="translate(-565.378 -238.076)"/><path class="h" d="M572.661,220.184a.432.432,0,0,0,.334.49l1.268.19s.291.029.372-.364a.427.427,0,0,0-.244-.476l-1.271-.19a.392.392,0,0,0-.458.35" transform="translate(-566.504 -217.184)"/><path class="h" d="M571.483,288.04a.461.461,0,0,0,.33.526l1.268.19a.429.429,0,0,0,.391-.384.452.452,0,0,0-.253-.53l-1.271-.19a.415.415,0,0,0-.466.388" transform="translate(-565.381 -282.013)"/><path class="h" d="M569.013,264.04a.46.46,0,0,0,.33.526l1.268.19a.426.426,0,0,0,.39-.384.451.451,0,0,0-.252-.53l-1.271-.19a.415.415,0,0,0-.466.387" transform="translate(-563.02 -259.072)"/><path class="b" d="M574.944,290.19a.137.137,0,0,0-.1-.044l-.059-.008a.318.318,0,0,0-.38.29.341.341,0,0,0,.277.406l.056.008a.243.243,0,0,0,.126-.006c.044-.023.042-.1.042-.1l.059-.433a.159.159,0,0,0-.02-.112" transform="translate(-568.17 -284.385)"/><path class="b" d="M574.164,243.4a.139.139,0,0,0-.1-.044l-.058-.009a.318.318,0,0,0-.38.29.341.341,0,0,0,.277.406l.056.009a.24.24,0,0,0,.126-.007c.044-.023.044-.1.044-.1l.059-.432a.158.158,0,0,0-.02-.112" transform="translate(-567.425 -239.66)"/><path class="b" d="M575.476,221.943a.132.132,0,0,0-.1-.041l-.056-.008a.3.3,0,0,0-.364.278.326.326,0,0,0,.265.389l.054.008a.226.226,0,0,0,.12-.006c.042-.022.041-.1.041-.1l.056-.414a.152.152,0,0,0-.019-.107" transform="translate(-568.701 -219.152)"/><path class="b" d="M571.572,265.95a.137.137,0,0,0-.1-.044l-.058-.008a.318.318,0,0,0-.38.29.341.341,0,0,0,.277.406l.057.009a.243.243,0,0,0,.126-.007c.044-.023.044-.1.044-.1l.058-.432a.159.159,0,0,0-.02-.112" transform="translate(-564.947 -261.215)"/><g transform="translate(2.386 4.542)"><g class="aa" transform="translate(0 0)"><path class="l" d="M490.618,271.7a.169.169,0,0,0,.126-.1,1.1,1.1,0,0,0-.326-1.608l-.785-.483-.114.239s.128.078.3.173c.605.339.908.554.988.8a1.177,1.177,0,0,1-.1.883.153.153,0,0,1-.088.088" transform="translate(-489.424 -269.214)"/></g></g><path class="b" d="M495.68,294.752l.706.4c.293-.56.075-.815-.193-.988a.142.142,0,0,0-.083-.023c-.042,0-.074.059-.074.059Z" transform="translate(-492.926 -288.213)"/></g><g class="ab" transform="translate(9.753 20.784)"><path class="d" d="M136.915,9.014c.154-.221.953-.452.953-.452a16.161,16.161,0,0,0,1.789-.519c.2-.343,5.507-9.531,6.521-11.292,0,0,0-.007.006-.011L148.22.267l-.006.011-5.658,9.8-.056.1.088,3.177s-.03.745-1.507.815c-1.1.052-2.784.143-3.632.177-.246.009-.4.03-.555-.112-.12-.111-.105-.391-.105-.391V9.579a1.166,1.166,0,0,1,.129-.563" transform="translate(-140.505 -17.668)"/><path class="e" d="M-15.052,302.929a5.414,5.414,0,0,0-.182-1.37,8.361,8.361,0,0,1-.155-1.728,1.128,1.128,0,0,1,.094-.441.583.583,0,0,1,.4-.306,5.031,5.031,0,0,1,.654-.12l.005,1.716a.132.132,0,0,0,.03.088.319.319,0,0,0,.135.019c.98-.113.976-.687.993-1.213v-.743l4.355-.331s.474.03.5.432a.516.516,0,0,1-.441.574l-2.524.306c-.072,0-.128.037-.126.073s.062.061.132.057l2.519-.306a.443.443,0,0,1,.418.365c.067.513-.342.576-.342.576l-2.532.306c-.072,0-.129.037-.127.073s.062.061.132.057l2.524-.306a.36.36,0,0,1,.353.366.392.392,0,0,1-.332.461l-2.443.3c-.071,0-.128.037-.126.073s.062.061.132.057l2.453-.3a.3.3,0,0,1,.348.267c.069.475-.286.485-.286.485a15.427,15.427,0,0,0-2.283.651,2.4,2.4,0,0,0-1.1,1.319l-5.325,9.23H-21.21c1.151-1.989,6.093-10.55,6.158-10.688" transform="translate(10.52 -306.112)"/><g transform="translate(-1.888 -5.379)"><g class="f"><path class="a" d="M219.524,359.12a.428.428,0,0,0-.274.544l.469,1.2s.128.3.514.136.3-.46.3-.46l-.47-1.208a.388.388,0,0,0-.542-.218" transform="translate(-217.42 -358.636)"/><path class="a" d="M239.778,349.189a.438.438,0,0,0-.26.54l.469,1.2s.12.269.5.14a.435.435,0,0,0,.293-.455l-.47-1.206a.391.391,0,0,0-.536-.221" transform="translate(-236.798 -349.153)"/><path class="a" d="M178.565,382.592a.468.468,0,0,0-.294.556l.469,1.2a.427.427,0,0,0,.53.146.459.459,0,0,0,.336-.489l-.47-1.207a.416.416,0,0,0-.574-.21" transform="translate(-178.257 -381.067)"/><path class="a" d="M198.315,368.248a.468.468,0,0,0-.294.556l.469,1.2a.426.426,0,0,0,.53.146.459.459,0,0,0,.336-.489l-.47-1.207a.416.416,0,0,0-.574-.21" transform="translate(-197.135 -367.356)"/></g></g><path class="d" d="M219.5,363.524a.422.422,0,0,0-.271.539l.469,1.191s.128.3.511.136.3-.454.3-.454l-.471-1.2a.388.388,0,0,0-.54-.218" transform="translate(-219.284 -368.225)"/><path class="d" d="M239.589,353.735a.43.43,0,0,0-.257.533l.469,1.194s.12.265.5.14a.427.427,0,0,0,.29-.45l-.471-1.2a.391.391,0,0,0-.532-.221" transform="translate(-238.508 -358.876)"/><path class="d" d="M178.883,386.659a.459.459,0,0,0-.29.548l.47,1.194a.429.429,0,0,0,.529.146.451.451,0,0,0,.333-.483l-.471-1.2a.414.414,0,0,0-.569-.209" transform="translate(-180.451 -390.334)"/><path class="d" d="M198.427,372.475a.461.461,0,0,0-.291.549l.47,1.191a.429.429,0,0,0,.53.146.451.451,0,0,0,.332-.483l-.47-1.2a.414.414,0,0,0-.568-.21" transform="translate(-199.132 -376.775)"/><path class="b" d="M182.1,390.185a.137.137,0,0,0-.014-.11l-.022-.055a.319.319,0,0,0-.441-.184.34.34,0,0,0-.214.441l.021.053a.237.237,0,0,0,.069.105c.041.026.109-.014.109-.014l.4-.166a.156.156,0,0,0,.088-.073" transform="translate(-183.137 -393.389)"/><path class="b" d="M222.2,366.091a.138.138,0,0,0-.014-.11l-.022-.055a.319.319,0,0,0-.441-.184.339.339,0,0,0-.213.441l.021.053a.24.24,0,0,0,.07.106c.041.026.109-.014.109-.014l.4-.166a.158.158,0,0,0,.088-.073" transform="translate(-221.473 -370.358)"/><path class="b" d="M241.935,356.391a.13.13,0,0,0-.013-.1l-.021-.052a.305.305,0,0,0-.422-.177.327.327,0,0,0-.2.424l.02.051a.232.232,0,0,0,.065.1c.04.025.105-.014.105-.014l.387-.159a.149.149,0,0,0,.083-.07" transform="translate(-240.363 -361.102)"/><path class="b" d="M201.407,375.15a.137.137,0,0,0-.014-.11l-.022-.055a.319.319,0,0,0-.441-.184.34.34,0,0,0-.214.441l.021.053a.242.242,0,0,0,.068.106c.044.026.11-.015.11-.015l.4-.165a.159.159,0,0,0,.088-.074" transform="translate(-201.595 -379.018)"/><g transform="translate(-3.696 -7.307)"><g class="g"><path class="a" d="M137.29,307.367a.166.166,0,0,0,.149.06,1.1,1.1,0,0,0,1.23-1.086l.025-.921-.265.021s0,.149,0,.345c.009.694-.025,1.063-.2,1.258a1.177,1.177,0,0,1-.814.357.154.154,0,0,1-.123-.033" transform="translate(-137.29 -305.42)"/></g></g><path class="b" d="M137.51,327.79l.008.809c.631-.026.743-.342.759-.662a.145.145,0,0,0-.022-.083c-.025-.034-.088-.034-.088-.034Z" transform="translate(-141.196 -334.11)"/><path class="h" d="M427.779,257.593c.507-.984,1.268-2.483,1.664-3.233.115-.218.177-.363.374-.425.156-.049.391.1.391.1l3.692,2.13a1.154,1.154,0,0,1,.423.392,2.7,2.7,0,0,1-.084,1.052,16.2,16.2,0,0,0-.446,1.809c.21.373,6.31,10.931,6.67,11.554l-.057.033h-4l-5.827-10.094-.056-.1-2.8-1.512s-.63-.4.049-1.712" transform="translate(-418.355 -263.504)"/><path class="d" d="M304-.02l2.017-3.49c.954,1.662,5.936,10.318,6.024,10.446a5.317,5.317,0,0,0,1.277.527,8.3,8.3,0,0,1,1.574.73,1.148,1.148,0,0,1,.336.3.583.583,0,0,1,.064.5,5.015,5.015,0,0,1-.221.627l-1.489-.853a.132.132,0,0,0-.092-.019c-.032.012-.083.1-.084.108-.393.9.107,1.189.554,1.467l.643.37-1.89,3.937s-.265.395-.623.214a.515.515,0,0,1-.276-.668l1-2.339c.033-.064.033-.13,0-.146s-.084.023-.116.088l-1,2.333a.443.443,0,0,1-.525.18.458.458,0,0,1-.327-.585l1-2.345c.032-.064.032-.13,0-.146s-.085.023-.117.088l-1,2.339a.359.359,0,0,1-.493.12.391.391,0,0,1-.233-.518l.961-2.267c.032-.064.033-.13,0-.146s-.084.023-.116.088l-.965,2.275a.3.3,0,0,1-.406.167c-.446-.177-.278-.491-.278-.491a15.468,15.468,0,0,0,.577-2.3,2.4,2.4,0,0,0-.593-1.611Z" transform="translate(-300.339 -17.429)"/><g transform="translate(8.761 -8.329)"><g class="i"><path class="a" d="M422.834,330.473a.43.43,0,0,0-.335-.511l-1.277-.2s-.325-.04-.375.377.246.493.246.493l1.28.2a.388.388,0,0,0,.461-.36" transform="translate(-420.786 -327.67)"/><path class="a" d="M421.578,353.069a.438.438,0,0,0-.338-.5l-1.277-.2s-.293-.03-.373.366a.433.433,0,0,0,.247.481l1.28.2a.392.392,0,0,0,.46-.353" transform="translate(-419.58 -349.284)"/><path class="a" d="M422.321,282.988a.468.468,0,0,0-.334-.533l-1.277-.2a.428.428,0,0,0-.392.387.459.459,0,0,0,.256.535l1.28.2a.414.414,0,0,0,.467-.39" transform="translate(-420.276 -282.26)"/><path class="a" d="M424.907,307.228a.467.467,0,0,0-.334-.533l-1.276-.2a.428.428,0,0,0-.392.387.458.458,0,0,0,.255.535l1.28.2a.415.415,0,0,0,.467-.391" transform="translate(-422.749 -305.43)"/></g></g><path class="h" d="M419.375,328.453a.422.422,0,0,0-.331-.5l-1.269-.19s-.323-.039-.373.375.243.488.243.488l1.271.19a.388.388,0,0,0,.459-.358" transform="translate(-408.732 -334.079)"/><path class="h" d="M418.025,350.829a.431.431,0,0,0-.334-.49l-1.268-.19s-.291-.03-.372.364a.428.428,0,0,0,.245.476l1.271.191a.392.392,0,0,0,.458-.35" transform="translate(-407.437 -355.482)"/><path class="h" d="M419,281.477a.462.462,0,0,0-.33-.526l-1.268-.19a.428.428,0,0,0-.391.385.451.451,0,0,0,.252.53l1.271.19a.415.415,0,0,0,.465-.387" transform="translate(-408.352 -289.155)"/><path class="h" d="M421.47,305.486a.462.462,0,0,0-.33-.526l-1.268-.19a.428.428,0,0,0-.391.384.451.451,0,0,0,.252.53l1.272.191a.415.415,0,0,0,.465-.388" transform="translate(-410.715 -312.105)"/><path class="b" d="M446.571,287.753a.138.138,0,0,0,.1.044l.058.008a.318.318,0,0,0,.38-.29.341.341,0,0,0-.277-.406l-.057-.008a.238.238,0,0,0-.126.007c-.044.023-.042.1-.042.1l-.059.432a.16.16,0,0,0,.02.112" transform="translate(-436.597 -295.211)"/><path class="b" d="M447.391,334.521a.136.136,0,0,0,.1.044l.058.009a.318.318,0,0,0,.38-.29.341.341,0,0,0-.277-.406l-.057-.008a.242.242,0,0,0-.126.006c-.044.023-.042.1-.042.1l-.059.433a.16.16,0,0,0,.02.112" transform="translate(-437.381 -339.916)"/><path class="b" d="M446.522,356.642a.132.132,0,0,0,.1.041l.056.008a.305.305,0,0,0,.364-.278.327.327,0,0,0-.265-.389l-.054-.008a.231.231,0,0,0-.12.006c-.041.022-.041.1-.041.1l-.056.414a.152.152,0,0,0,.019.107" transform="translate(-436.551 -361.086)"/><path class="b" d="M449.909,311.983a.135.135,0,0,0,.1.044l.058.009a.319.319,0,0,0,.38-.29.341.341,0,0,0-.277-.406l-.056-.008a.238.238,0,0,0-.126.007c-.044.023-.044.1-.044.1l-.058.432a.158.158,0,0,0,.02.113" transform="translate(-439.787 -318.372)"/><g transform="translate(12.821 -8.681)"><g class="j"><path class="a" d="M511.921,274.27a.169.169,0,0,0-.126.1,1.1,1.1,0,0,0,.326,1.608l.785.483.113-.239s-.127-.078-.3-.173c-.605-.339-.908-.553-.988-.8a1.175,1.175,0,0,1,.1-.883.154.154,0,0,1,.088-.09" transform="translate(-511.575 -274.27)"/></g></g><path class="b" d="M519.842,276.747l-.706-.4c-.293.56-.076.815.193.989a.146.146,0,0,0,.083.022c.044,0,.075-.059.075-.059Z" transform="translate(-505.848 -284.94)"/><path class="b" d="M275.145,520.71c.036-.16.286-.287.286-.287l3.689-2.134a1.17,1.17,0,0,1,.552-.17c.27.022.868.6.868.6a15.993,15.993,0,0,0,1.345,1.292c.318,0,7.128,0,10.9,0l2.036,3.53H281.46l-2.707,1.665s-.662.346-1.459-.9c-.6-.931-1.517-2.339-1.968-3.058-.132-.208-.227-.334-.181-.537" transform="translate(-272.747 -516.038)"/><path class="b" d="M-8.6,518.785c.208-.016.764-.583,1.1-.843a8.242,8.242,0,0,1,1.42-1,1.116,1.116,0,0,1,.429-.14.586.586,0,0,1,.466.2,5.056,5.056,0,0,1,.429.506l-1.484.863s-.055.03-.062.07.048.124.05.127c.587.794,1.083.5,1.548.253l.645-.373L-1.6,522.05s.211.425-.126.646a.516.516,0,0,1-.717-.094l-1.527-2.033c-.039-.06-.1-.093-.126-.073s-.023.085.017.145l1.524,2.03a.443.443,0,0,1-.107.545.457.457,0,0,1-.67-.008l-1.531-2.039c-.039-.06-.1-.093-.126-.074s-.022.085.018.145l1.527,2.033a.358.358,0,0,1-.142.488.391.391,0,0,1-.565-.057l-1.482-1.965c-.04-.06-.1-.093-.126-.073s-.022.084.018.145l1.487,1.972a.3.3,0,0,1-.057.435c-.377.3-.564,0-.564,0a15.593,15.593,0,0,0-1.705-1.651,2.4,2.4,0,0,0-1.665-.318L-21,522.269l2.01-3.482c1.965,0,10.237.009,10.388,0" transform="translate(10.32 -514.782)"/><g transform="translate(2.298 6.115)"><g class="k"><path class="b" d="M315.433,633.081a.428.428,0,0,0-.609.035l-.808,1.008s-.2.261.139.513.55.034.55.034l.81-1.01a.389.389,0,0,0-.083-.579" transform="translate(-312.157 -631.938)"/><path class="b" d="M334.569,645.4a.438.438,0,0,0-.6.044l-.808,1.008s-.173.238.132.507a.434.434,0,0,0,.541.026l.81-1.011a.391.391,0,0,0-.075-.574" transform="translate(-330.467 -643.717)"/><path class="b" d="M274.6,609.692a.468.468,0,0,0-.628.023l-.808,1.008a.428.428,0,0,0,.139.533.46.46,0,0,0,.591.044l.811-1.009a.414.414,0,0,0-.1-.6" transform="translate(-273.12 -609.583)"/><path class="b" d="M296.878,619.642a.468.468,0,0,0-.628.023l-.808,1.008a.428.428,0,0,0,.139.533.459.459,0,0,0,.591.046l.81-1.01a.414.414,0,0,0-.1-.6" transform="translate(-294.417 -619.094)"/></g></g><path class="b" d="M311.946,635.214a.42.42,0,0,0-.6.035l-.8,1s-.2.26.138.51.544.034.544.034l.8-1.006a.388.388,0,0,0-.081-.576" transform="translate(-306.541 -627.862)"/><path class="b" d="M330.85,647.463a.432.432,0,0,0-.591.044l-.8,1s-.171.237.129.5a.427.427,0,0,0,.534.026l.8-1.006a.394.394,0,0,0-.075-.574" transform="translate(-324.63 -639.578)"/><path class="b" d="M271.59,611.93a.459.459,0,0,0-.62.023l-.8,1a.427.427,0,0,0,.137.53.451.451,0,0,0,.585.044l.8-1.006a.414.414,0,0,0-.1-.6" transform="translate(-267.964 -605.608)"/><path class="b" d="M293.608,621.79a.46.46,0,0,0-.621.023l-.8,1a.426.426,0,0,0,.138.53.452.452,0,0,0,.584.046l.8-1.006a.414.414,0,0,0-.1-.6" transform="translate(-289.01 -615.033)"/><path class="b" d="M288.74,615.377a.135.135,0,0,0,.088-.066l.036-.044a.318.318,0,0,0-.061-.474.342.342,0,0,0-.49.037l-.035.044a.237.237,0,0,0-.057.113c0,.049.067.088.067.088l.345.265a.156.156,0,0,0,.107.038" transform="translate(-285.255 -608.361)"/><path class="b" d="M329.63,638.033a.137.137,0,0,0,.088-.067l.037-.044a.319.319,0,0,0-.062-.474.341.341,0,0,0-.49.037l-.036.044a.243.243,0,0,0-.057.112c0,.049.067.088.067.088l.345.265a.157.157,0,0,0,.107.039" transform="translate(-324.341 -630.017)"/><path class="b" d="M348.338,650.119a.132.132,0,0,0,.084-.064l.035-.044a.305.305,0,0,0-.059-.454.326.326,0,0,0-.469.036l-.034.044a.232.232,0,0,0-.055.108c0,.047.064.084.064.084l.331.255a.152.152,0,0,0,.1.037" transform="translate(-342.245 -641.596)"/><path class="b" d="M311.4,624.581a.136.136,0,0,0,.088-.067l.037-.044a.319.319,0,0,0-.061-.474.344.344,0,0,0-.49.037l-.036.044a.24.24,0,0,0-.057.112c0,.049.067.088.067.088l.346.265a.158.158,0,0,0,.107.038" transform="translate(-306.916 -617.16)"/><g transform="translate(4.01 3.638)"><g class="m"><path class="b" d="M311.93,553.46a.167.167,0,0,0,.023.159,1.1,1.1,0,0,0,1.555.522l.811-.437-.15-.218s-.132.072-.3.171c-.6.353-.933.51-1.191.454a1.168,1.168,0,0,1-.716-.53.154.154,0,0,1-.033-.123" transform="translate(-311.92 -553.46)"/></g></g><path class="b" d="M316.027,542.78l-.7.411c.338.534.668.473.953.327a.141.141,0,0,0,.061-.06.125.125,0,0,0-.013-.094Z" transform="translate(-311.169 -539.613)"/></g><path class="b" d="M143.209,8.661c-.942-1.537-1.915-3.126-2.836-4.7C138.3.431,135.722,0,134.359,0s-4,.519-6.07,4.045c-.923,1.578-1.9,3.167-2.838,4.7-.3.488-.551.977-.841,1.453a14.383,14.383,0,0,0,2.8,2.154c1.282-2.107,2.654-4.309,3.951-6.526.905-1.544,1.95-2.316,2.994-2.316s2.141.774,3.047,2.318c1.351,2.31,2.651,4.565,4.06,6.788a14.39,14.39,0,0,0,2.872-2.04C143.973,9.981,143.587,9.278,143.209,8.661Z" transform="translate(-119.112)"/><g class="ac" transform="translate(2.023 7.091)"><path class="b" d="M389.116,193.71a2.7,2.7,0,0,1-.085,1.051,16.2,16.2,0,0,0-.445,1.809c.2.348,5.5,9.535,6.519,11.293l.006.011h-4.072l-.007-.011-5.658-9.8-.056-.1-2.795-1.511s-.63-.4.049-1.713c.507-.984,1.268-2.483,1.664-3.233.115-.218.177-.363.375-.425.156-.049.391.1.391.1l3.691,2.129a1.156,1.156,0,0,1,.423.393" transform="translate(-367.413 -189.734)"/><path class="b" d="M263.752-60.953a5.326,5.326,0,0,0,1.277.527,8.339,8.339,0,0,1,1.574.73,1.146,1.146,0,0,1,.336.3.582.582,0,0,1,.064.5,5.02,5.02,0,0,1-.221.627l-1.489-.853a.132.132,0,0,0-.092-.019c-.032.012-.083.1-.084.107-.392.905.107,1.191.555,1.467l.643.37-1.89,3.937s-.265.4-.623.214a.516.516,0,0,1-.277-.668l1-2.339c.032-.065.033-.132,0-.146s-.084.023-.117.088l-1,2.332a.442.442,0,0,1-.525.179.457.457,0,0,1-.328-.584l1-2.345c.032-.065.032-.13,0-.146s-.084.023-.117.088l-1,2.339a.358.358,0,0,1-.493.121.392.392,0,0,1-.233-.518l.961-2.267c.033-.064.033-.13,0-.146s-.084.023-.116.088l-.965,2.275a.3.3,0,0,1-.406.167c-.446-.177-.279-.491-.279-.491a15.5,15.5,0,0,0,.578-2.3,2.391,2.391,0,0,0-.594-1.611l-5.328-9.229,2-3.473c1.147,1.991,6.089,10.552,6.178,10.679" transform="translate(-246.316 61.378)"/><g transform="translate(13.021 2.08)"><g class="o" transform="translate(0 0)"><path class="a" d="M377.588,267.6a.429.429,0,0,0-.334-.51l-1.28-.2s-.325-.041-.375.377.246.493.246.493l1.28.2a.389.389,0,0,0,.461-.361" transform="translate(-374.064 -264.289)"/><path class="a" d="M376.373,290.247a.435.435,0,0,0-.337-.493l-1.277-.2s-.293-.031-.373.366a.436.436,0,0,0,.248.482l1.28.2a.392.392,0,0,0,.46-.353" transform="translate(-372.9 -285.951)"/><path class="a" d="M377.108,220.108a.468.468,0,0,0-.334-.533l-1.277-.2a.428.428,0,0,0-.392.387.458.458,0,0,0,.255.535l1.28.2a.414.414,0,0,0,.467-.391" transform="translate(-373.588 -218.87)"/><path class="a" d="M379.671,244.358a.468.468,0,0,0-.334-.533l-1.277-.2a.428.428,0,0,0-.392.387.46.46,0,0,0,.255.536l1.28.2a.414.414,0,0,0,.467-.391" transform="translate(-376.037 -242.05)"/></g></g><path class="b" d="M374.127,265.582a.422.422,0,0,0-.331-.5l-1.268-.19s-.323-.039-.374.375.243.485.243.485l1.272.19a.388.388,0,0,0,.458-.358" transform="translate(-357.75 -260.29)"/><path class="b" d="M372.85,287.949a.431.431,0,0,0-.334-.49l-1.268-.19s-.291-.03-.372.364a.427.427,0,0,0,.244.476l1.271.19a.392.392,0,0,0,.458-.35" transform="translate(-356.524 -281.683)"/><path class="b" d="M373.79,218.556a.461.461,0,0,0-.33-.526l-1.268-.19a.427.427,0,0,0-.391.384.451.451,0,0,0,.252.53l1.271.191a.415.415,0,0,0,.466-.388" transform="translate(-357.408 -215.318)"/><path class="b" d="M376.26,242.557a.463.463,0,0,0-.33-.527l-1.268-.19a.427.427,0,0,0-.391.384.452.452,0,0,0,.252.53l1.271.191a.415.415,0,0,0,.466-.387" transform="translate(-359.77 -238.259)"/><path class="b" d="M401.358,224.857a.136.136,0,0,0,.1.044l.058.009a.318.318,0,0,0,.379-.29.342.342,0,0,0-.277-.406l-.057-.008a.242.242,0,0,0-.126.007c-.044.023-.042.1-.042.1l-.059.433a.156.156,0,0,0,.02.112" transform="translate(-385.649 -221.397)"/><path class="b" d="M402.142,271.633a.136.136,0,0,0,.1.044l.058.009a.318.318,0,0,0,.379-.29.34.34,0,0,0-.277-.406l-.056-.009a.24.24,0,0,0-.126.007c-.044.023-.044.1-.044.1l-.058.433a.16.16,0,0,0,.02.112" transform="translate(-386.397 -266.109)"/><path class="b" d="M401.357,293.762a.132.132,0,0,0,.1.041l.056.008a.305.305,0,0,0,.364-.278.327.327,0,0,0-.265-.389l-.054-.008a.231.231,0,0,0-.12.006c-.041.022-.041.1-.041.1l-.056.414a.149.149,0,0,0,.019.107" transform="translate(-385.649 -287.288)"/><path class="b" d="M404.728,249.107a.135.135,0,0,0,.1.044l.058.009a.318.318,0,0,0,.38-.29.341.341,0,0,0-.277-.406l-.057-.009a.243.243,0,0,0-.126.007c-.044.023-.042.1-.042.1l-.059.432a.158.158,0,0,0,.02.113" transform="translate(-388.87 -244.577)"/><g transform="translate(18.149 2.208)"><g class="p" transform="translate(0 0)"><path class="a" d="M466.715,211.4a.167.167,0,0,0-.126.1,1.1,1.1,0,0,0,.326,1.608l.785.481.113-.239s-.127-.078-.3-.174c-.605-.338-.908-.553-.988-.8a1.177,1.177,0,0,1,.1-.883.154.154,0,0,1,.088-.088" transform="translate(-465.961 -211.37)"/></g></g><path class="b" d="M474.672,213.867l-.706-.4c-.293.56-.076.814.193.988a.145.145,0,0,0,.083.023c.042,0,.074-.06.074-.06Z" transform="translate(-454.941 -211.141)"/><path class="b" d="M-52.028,454.733c.6.932,1.517,2.339,1.968,3.058.132.208.226.333.181.537-.036.159-.286.287-.286.287l-3.69,2.132a1.162,1.162,0,0,1-.551.17c-.27-.022-.868-.6-.868-.6a16.121,16.121,0,0,0-1.345-1.29c-.428-.005-12.62,0-13.341,0v-.066l2-3.461h11.768l2.707-1.665s.662-.346,1.459.9" transform="translate(64.85 -440.858)"/><path class="b" d="M257.5,447.763l2.015,3.49c-1.917,0-11.9-.018-12.058-.006-.209.016-.764.582-1.1.842a8.312,8.312,0,0,1-1.42,1,1.115,1.115,0,0,1-.429.14.586.586,0,0,1-.466-.2,5.047,5.047,0,0,1-.432-.506l1.484-.863s.055-.03.062-.07-.049-.124-.051-.127c-.587-.794-1.083-.5-1.547-.253l-.642.372-2.464-3.606s-.211-.425.126-.646a.516.516,0,0,1,.717.094l1.527,2.032c.039.06.1.093.126.073s.022-.085-.017-.145l-1.524-2.03a.443.443,0,0,1,.107-.545.458.458,0,0,1,.67.009l1.531,2.039c.04.06.1.093.126.073s.023-.085-.018-.145l-1.527-2.032a.359.359,0,0,1,.142-.488.392.392,0,0,1,.565.057l1.482,1.965c.04.06.1.093.126.073s.022-.084-.017-.145l-1.489-1.971a.3.3,0,0,1,.057-.435c.377-.3.565,0,.565,0a15.57,15.57,0,0,0,1.705,1.651,2.386,2.386,0,0,0,1.692.292Z" transform="translate(-231.809 -433.109)"/><g transform="translate(10.579 12.439)"><g class="q" transform="translate(0 0)"><path class="a" d="M309.266,461.575a.428.428,0,0,0,.609-.034l.808-1.008s.2-.261-.139-.513-.55-.034-.55-.034l-.81,1.011a.389.389,0,0,0,.082.579" transform="translate(-308.05 -459.13)"/><path class="a" d="M290.71,449.686a.438.438,0,0,0,.6-.044l.808-1.007s.173-.238-.132-.506a.433.433,0,0,0-.541-.026l-.81,1.01a.391.391,0,0,0,.075.574" transform="translate(-290.32 -447.778)"/><path class="a" d="M349.74,484.74a.468.468,0,0,0,.628-.023l.808-1.01a.423.423,0,0,0-.139-.53.461.461,0,0,0-.592-.044l-.81,1.011a.414.414,0,0,0,.1.6" transform="translate(-346.725 -481.262)"/><path class="a" d="M327.464,474.755a.468.468,0,0,0,.628-.023l.808-1.008a.428.428,0,0,0-.139-.533.459.459,0,0,0-.592-.046l-.81,1.01a.415.415,0,0,0,.1.6" transform="translate(-325.432 -471.715)"/></g></g><path class="h" d="M313.175,459.6a.421.421,0,0,0,.6-.034l.8-1s.2-.26-.138-.511-.544-.033-.544-.033l-.8,1.006a.386.386,0,0,0,.081.574" transform="translate(-301.21 -444.811)"/><path class="h" d="M294.9,447.77a.431.431,0,0,0,.591-.044l.8-1s.171-.237-.129-.5a.427.427,0,0,0-.533-.026l-.8,1.005a.394.394,0,0,0,.075.574" transform="translate(-283.752 -433.514)"/><path class="h" d="M353.217,482.653a.461.461,0,0,0,.621-.023l.8-1a.426.426,0,0,0-.138-.529.451.451,0,0,0-.584-.044l-.8,1a.414.414,0,0,0,.1.6" transform="translate(-339.474 -466.834)"/><path class="h" d="M331.149,472.777a.46.46,0,0,0,.621-.023l.8-1a.427.427,0,0,0-.137-.53.453.453,0,0,0-.585-.046l-.8,1.006a.414.414,0,0,0,.1.6" transform="translate(-318.378 -457.394)"/><path class="b" d="M356.1,503.469a.137.137,0,0,0-.088.067l-.036.044a.319.319,0,0,0,.061.474.341.341,0,0,0,.49-.037l.036-.044a.234.234,0,0,0,.057-.112c0-.049-.067-.088-.067-.088l-.344-.265a.159.159,0,0,0-.107-.038" transform="translate(-342.216 -488.344)"/><path class="b" d="M315.17,480.79a.136.136,0,0,0-.088.067l-.037.044a.319.319,0,0,0,.062.474.341.341,0,0,0,.49-.037l.036-.044a.234.234,0,0,0,.057-.112c0-.049-.067-.088-.067-.088l-.346-.265a.158.158,0,0,0-.107-.038" transform="translate(-303.089 -466.665)"/><path class="b" d="M297.138,469.241a.132.132,0,0,0-.084.064l-.035.044a.3.3,0,0,0,.058.453.326.326,0,0,0,.469-.035l.034-.044a.233.233,0,0,0,.055-.108c0-.047-.064-.084-.064-.084l-.331-.255a.152.152,0,0,0-.1-.037" transform="translate(-285.862 -455.624)"/><path class="b" d="M333.41,494.26a.135.135,0,0,0-.088.067l-.037.046a.318.318,0,0,0,.062.474.341.341,0,0,0,.49-.037l.036-.044a.238.238,0,0,0,.057-.112c0-.049-.067-.088-.067-.088l-.346-.265a.159.159,0,0,0-.107-.039" transform="translate(-320.525 -479.541)"/><g transform="translate(10.903 17.105)"><g class="r" transform="translate(0 0)"><path class="a" d="M296.6,561.981a.167.167,0,0,0-.023-.159,1.1,1.1,0,0,0-1.555-.522l-.811.439.15.218s.132-.071.3-.171c.6-.353.933-.51,1.191-.454a1.172,1.172,0,0,1,.716.53.152.152,0,0,1,.033.123" transform="translate(-294.153 -560.584)"/></g></g><path class="b" d="M322.452,572.491l.7-.411c-.338-.534-.668-.472-.952-.327a.144.144,0,0,0-.061.06.126.126,0,0,0,.015.094Z" transform="translate(-309.941 -553.517)"/><path class="b" d="M-57.891,214.763c.12.111.105.391.105.391l0,4.262a1.171,1.171,0,0,1-.129.563c-.154.221-.952.452-.952.452a16.262,16.262,0,0,0-1.79.518c-.162.274-3.567,6.172-5.454,9.443H-70.18l6.627-11.477.056-.1-.088-3.177s.031-.745,1.508-.814c1.1-.052,2.784-.144,3.632-.176.246-.009.4-.03.555.112" transform="translate(65.06 -212.263)"/><path class="b" d="M80.624-58.741a5.388,5.388,0,0,0,.182,1.368,8.314,8.314,0,0,1,.155,1.728,1.131,1.131,0,0,1-.093.441.587.587,0,0,1-.4.305,5.048,5.048,0,0,1-.654.121l-.005-1.716a.132.132,0,0,0-.03-.088.319.319,0,0,0-.135-.02c-.98.113-.976.687-.993,1.214v.742l-4.354.335s-.474-.03-.5-.432a.516.516,0,0,1,.441-.574l2.524-.306c.072,0,.128-.037.126-.072s-.062-.062-.132-.057l-2.518.306a.443.443,0,0,1-.418-.365c-.067-.512.342-.576.342-.576l2.528-.306c.072,0,.128-.037.127-.072s-.062-.062-.132-.057l-2.524.306a.361.361,0,0,1-.353-.367.391.391,0,0,1,.332-.46l2.443-.3c.071,0,.128-.037.126-.073s-.062-.061-.132-.057l-2.452.3a.3.3,0,0,1-.348-.267c-.069-.475.285-.485.285-.485a15.466,15.466,0,0,0,2.283-.651,2.394,2.394,0,0,0,1.1-1.319L83.8-71.22l2.01,3.482c-.985,1.7-5.126,8.86-5.191,9" transform="translate(-72.535 60.986)"/><g transform="translate(0.934 0.017)"><g class="s" transform="translate(0 0)"><path class="b" d="M99.4,208.47a.428.428,0,0,0,.274-.545l-.469-1.2s-.128-.3-.515-.136-.3.459-.3.459l.47,1.207a.39.39,0,0,0,.543.221" transform="translate(-96.995 -204.53)"/><path class="b" d="M79.9,218.947a.438.438,0,0,0,.26-.54l-.468-1.2s-.12-.269-.5-.14a.435.435,0,0,0-.293.455l.471,1.206a.391.391,0,0,0,.535.221" transform="translate(-78.373 -214.56)"/><path class="b" d="M139.648,184.731a.468.468,0,0,0,.295-.556l-.47-1.2a.427.427,0,0,0-.53-.146.459.459,0,0,0-.336.489l.469,1.205a.414.414,0,0,0,.571.21" transform="translate(-135.445 -181.832)"/><path class="b" d="M119.928,199.071a.468.468,0,0,0,.295-.556l-.47-1.2a.426.426,0,0,0-.53-.146.459.459,0,0,0-.336.489l.47,1.206a.415.415,0,0,0,.574.21" transform="translate(-116.596 -195.539)"/></g></g><path class="b" d="M99.546,204.515a.422.422,0,0,0,.271-.539l-.47-1.191s-.127-.3-.511-.136-.3.454-.3.454l.47,1.192a.389.389,0,0,0,.54.218" transform="translate(-96.201 -200.751)"/><path class="b" d="M80.239,214.865a.431.431,0,0,0,.257-.534l-.47-1.191s-.12-.265-.5-.14a.427.427,0,0,0-.29.45l.471,1.2a.392.392,0,0,0,.532.22" transform="translate(-77.761 -210.66)"/><path class="b" d="M139.4,181.105a.46.46,0,0,0,.291-.549l-.469-1.191a.429.429,0,0,0-.53-.147.452.452,0,0,0-.332.483l.472,1.195a.414.414,0,0,0,.568.209" transform="translate(-134.271 -178.367)"/><path class="b" d="M119.875,195.251a.46.46,0,0,0,.291-.549l-.47-1.191a.429.429,0,0,0-.53-.146.447.447,0,0,0-.331.48l.471,1.2a.414.414,0,0,0,.568.21" transform="translate(-115.612 -191.889)"/><path class="b" d="M149.869,206.422a.135.135,0,0,0,.013.109l.022.055a.319.319,0,0,0,.441.184.34.34,0,0,0,.213-.441l-.021-.053a.24.24,0,0,0-.069-.105c-.041-.026-.109.014-.109.014l-.4.164a.158.158,0,0,0-.088.074" transform="translate(-145.273 -204.155)"/><path class="b" d="M109.8,230.523a.137.137,0,0,0,.014.11l.021.054a.32.32,0,0,0,.441.184.339.339,0,0,0,.213-.441l-.021-.053a.24.24,0,0,0-.069-.105c-.041-.026-.109.015-.109.015l-.4.165a.158.158,0,0,0-.088.074" transform="translate(-106.977 -227.193)"/><path class="b" d="M90.734,240.782a.132.132,0,0,0,.013.105l.02.053a.306.306,0,0,0,.423.177.326.326,0,0,0,.2-.424l-.02-.051a.228.228,0,0,0-.066-.1c-.04-.025-.1.014-.1.014l-.387.159a.15.15,0,0,0-.083.07" transform="translate(-88.748 -237.009)"/><path class="b" d="M130.592,221.462a.135.135,0,0,0,.014.109l.022.055a.319.319,0,0,0,.441.184.339.339,0,0,0,.213-.441l-.021-.053a.237.237,0,0,0-.069-.105c-.041-.026-.109.014-.109.014l-.4.166a.159.159,0,0,0-.088.074" transform="translate(-126.847 -218.531)"/><g transform="translate(5.338 3.997)"><g class="ad" transform="translate(0 0)"><path class="b" d="M179.785,259.574a.168.168,0,0,0-.149-.06,1.1,1.1,0,0,0-1.23,1.086l-.026.92.265-.021s0-.15,0-.345c-.009-.694.026-1.063.2-1.258a1.176,1.176,0,0,1,.815-.357.153.153,0,0,1,.123.033" transform="translate(-177.87 -259.15)"/></g></g><path class="b" d="M193.373,265.129l-.008-.809c-.631.026-.743.342-.759.662a.141.141,0,0,0,.022.083.126.126,0,0,0,.088.034Z" transform="translate(-186.13 -259.747)"/></g><g class="ae" transform="translate(18.697 6.629)"><path class="d" d="M28.614,453.233c-.27-.024-.868-.6-.868-.6a16.2,16.2,0,0,0-1.345-1.29c-.4,0-11.008,0-13.039,0H13.35l2.036-3.527H26.827l2.707-1.664s.662-.346,1.459.9c.6.931,1.517,2.339,1.968,3.058.132.208.227.333.18.537-.035.16-.286.287-.286.287l-3.689,2.13a1.17,1.17,0,0,1-.552.17" transform="translate(-31.458 -433.053)"/><path class="b" d="M324.22,443.529c-.209.016-.764.583-1.1.842a8.315,8.315,0,0,1-1.419,1,1.115,1.115,0,0,1-.429.14.587.587,0,0,1-.466-.2,5.083,5.083,0,0,1-.432-.507l1.484-.863s.055-.03.062-.07-.048-.124-.051-.127c-.588-.792-1.083-.5-1.548-.253l-.643.372-2.464-3.6s-.211-.425.126-.646a.516.516,0,0,1,.717.094l1.527,2.032c.04.06.1.093.126.073s.022-.084-.017-.145l-1.524-2.03a.443.443,0,0,1,.107-.544.457.457,0,0,1,.67.008l1.531,2.04c.04.06.1.093.127.073s.022-.085-.018-.145l-1.527-2.033a.356.356,0,0,1,.142-.485.391.391,0,0,1,.565.057l1.481,1.964c.04.06.1.093.126.073s.022-.084-.017-.145l-1.487-1.973a.3.3,0,0,1,.058-.435c.377-.3.564,0,.564,0a15.569,15.569,0,0,0,1.705,1.651,2.387,2.387,0,0,0,1.692.292h10.658l2.006,3.473c-2.3,0-12.184,0-12.335.011" transform="translate(-321.856 -425.271)"/><g transform="translate(-2.854 11.882)"><g class="v" transform="translate(0 0)"><path class="a" d="M385.99,453.822a.428.428,0,0,0,.609-.034l.808-1.008s.2-.261-.139-.513-.55-.034-.55-.034l-.811,1.01a.389.389,0,0,0,.082.579" transform="translate(-384.629 -450.7)"/><path class="a" d="M367.516,441.958a.438.438,0,0,0,.6-.044l.808-1.008s.173-.238-.13-.506a.435.435,0,0,0-.541-.026l-.81,1.01a.392.392,0,0,0,.075.574" transform="translate(-366.98 -439.371)"/><path class="a" d="M426.5,476.947a.467.467,0,0,0,.628-.022l.808-1.008a.428.428,0,0,0-.139-.533.459.459,0,0,0-.591-.047l-.81,1.01a.414.414,0,0,0,.1.6" transform="translate(-423.344 -472.791)"/><path class="a" d="M404.2,467.035a.468.468,0,0,0,.628-.023l.807-1.008a.428.428,0,0,0-.139-.533.459.459,0,0,0-.591-.046l-.811,1.01a.414.414,0,0,0,.1.6" transform="translate(-402.024 -463.316)"/></g></g><path class="b" d="M389.918,451.878a.421.421,0,0,0,.6-.035l.8-1s.2-.26-.138-.511-.544-.034-.544-.034l-.8,1.006a.388.388,0,0,0,.081.576" transform="translate(-391.241 -436.967)"/><path class="b" d="M371.626,440.062a.432.432,0,0,0,.591-.044l.8-1s.171-.237-.129-.5a.427.427,0,0,0-.534-.026l-.8,1.006a.394.394,0,0,0,.074.574" transform="translate(-373.764 -425.684)"/><path class="b" d="M429.927,474.924a.459.459,0,0,0,.62-.022l.8-1a.426.426,0,0,0-.137-.53.453.453,0,0,0-.585-.047l-.8,1.006a.414.414,0,0,0,.1.6" transform="translate(-429.472 -458.984)"/><path class="b" d="M407.909,465.057a.461.461,0,0,0,.621-.022l.8-1a.426.426,0,0,0-.137-.53.453.453,0,0,0-.585-.046l-.8,1.005a.416.416,0,0,0,.1.6" transform="translate(-408.427 -449.553)"/><path class="b" d="M432.859,495.711a.138.138,0,0,0-.088.067l-.036.044a.318.318,0,0,0,.061.474.342.342,0,0,0,.49-.037l.036-.044a.237.237,0,0,0,.057-.113c0-.049-.067-.088-.067-.088l-.345-.267a.157.157,0,0,0-.107-.038" transform="translate(-432.259 -480.464)"/><path class="b" d="M391.95,473.031a.137.137,0,0,0-.088.067l-.037.044a.319.319,0,0,0,.062.474.341.341,0,0,0,.49-.037l.036-.044a.236.236,0,0,0,.057-.112c0-.049-.067-.088-.067-.088l-.345-.267a.16.16,0,0,0-.107-.038" transform="translate(-393.156 -458.785)"/><path class="b" d="M373.9,461.549a.132.132,0,0,0-.084.064l-.035.044a.305.305,0,0,0,.06.454.327.327,0,0,0,.469-.035l.034-.044a.23.23,0,0,0,.055-.107c0-.047-.064-.084-.064-.084l-.331-.255a.148.148,0,0,0-.1-.037" transform="translate(-375.912 -447.811)"/><path class="b" d="M410.169,486.539a.135.135,0,0,0-.088.066l-.037.046a.318.318,0,0,0,.061.474.341.341,0,0,0,.49-.037l.036-.044a.243.243,0,0,0,.057-.113c0-.049-.068-.088-.068-.088l-.345-.267a.159.159,0,0,0-.108-.038" transform="translate(-410.571 -471.699)"/><g transform="translate(-2.327 17.377)"><g class="w" transform="translate(0 0)"><path class="a" d="M373.388,554.269a.168.168,0,0,0-.023-.159,1.1,1.1,0,0,0-1.555-.522l-.81.438.15.218s.132-.071.3-.171c.6-.355.933-.51,1.191-.454a1.175,1.175,0,0,1,.716.527.152.152,0,0,1,.033.123" transform="translate(-370.999 -553.023)"/></g></g><path class="b" d="M399.212,564.8l.7-.411c-.338-.534-.668-.473-.952-.327a.144.144,0,0,0-.061.06.126.126,0,0,0,.015.094Z" transform="translate(-399.988 -545.708)"/><path class="h" d="M172.63-61.844c-1.106.052-2.785.143-3.633.177-.246.009-.4.03-.555-.111-.12-.111-.105-.392-.105-.392v-4.262a1.167,1.167,0,0,1,.128-.562c.154-.221.953-.452.953-.452a16.078,16.078,0,0,0,1.79-.519c.217-.367,6.311-10.93,6.669-11.554l.057.033,2,3.461L174.1-65.933l-.056.1.088,3.177s-.031.745-1.507.814" transform="translate(-179.606 69.382)"/><path class="b" d="M17.18,242.778H13.15c.964-1.657,5.967-10.3,6.034-10.44A5.291,5.291,0,0,0,19,230.971a8.322,8.322,0,0,1-.155-1.729,1.126,1.126,0,0,1,.093-.441.583.583,0,0,1,.4-.306,5.029,5.029,0,0,1,.654-.121L20,230.089a.132.132,0,0,0,.03.088.326.326,0,0,0,.135.019c.98-.113.976-.687.993-1.213v-.742l4.355-.331s.473.03.5.432a.516.516,0,0,1-.441.574l-2.524.306c-.072,0-.128.037-.126.072s.062.062.132.057l2.518-.305a.443.443,0,0,1,.419.365c.067.512-.342.574-.342.574l-2.531.308c-.071,0-.128.037-.126.073s.062.061.132.057l2.524-.306a.361.361,0,0,1,.353.367.392.392,0,0,1-.332.461l-2.444.3c-.071,0-.128.037-.126.072s.062.062.132.058l2.452-.3a.3.3,0,0,1,.348.267c.068.475-.286.485-.286.485a15.451,15.451,0,0,0-2.282.651,2.4,2.4,0,0,0-1.1,1.319Z" transform="translate(-31.267 -224.482)"/><g transform="translate(-9.819 5.379)"><g class="x" transform="translate(0 0)"><path class="a" d="M251.065,288.532a.428.428,0,0,0-.275.545l.47,1.2s.128.3.514.136.3-.46.3-.46l-.47-1.206a.39.39,0,0,0-.542-.221" transform="translate(-248.581 -287.765)"/><path class="a" d="M271.329,278.577a.438.438,0,0,0-.26.54l.469,1.2s.12.269.5.14a.434.434,0,0,0,.293-.455l-.47-1.206a.391.391,0,0,0-.535-.221" transform="translate(-267.969 -278.258)"/><path class="a" d="M210.115,312a.468.468,0,0,0-.294.556l.469,1.2a.426.426,0,0,0,.53.146.459.459,0,0,0,.336-.489l-.47-1.206a.414.414,0,0,0-.571-.21" transform="translate(-209.427 -310.191)"/><path class="a" d="M229.842,297.64a.467.467,0,0,0-.294.555l.469,1.2a.427.427,0,0,0,.53.146.459.459,0,0,0,.336-.489l-.47-1.207a.414.414,0,0,0-.574-.21" transform="translate(-228.283 -296.466)"/></g></g><path class="h" d="M251.047,292.972a.421.421,0,0,0-.271.538l.47,1.194s.128.3.511.136.3-.454.3-.454l-.47-1.2a.388.388,0,0,0-.54-.218" transform="translate(-258.386 -286.633)"/><path class="h" d="M271.139,283.135a.431.431,0,0,0-.257.534l.469,1.194s.12.265.5.14a.428.428,0,0,0,.29-.45l-.47-1.2a.392.392,0,0,0-.533-.221" transform="translate(-277.609 -277.236)"/><path class="h" d="M210.433,316.061a.46.46,0,0,0-.291.549l.47,1.191a.429.429,0,0,0,.53.146.453.453,0,0,0,.332-.485l-.47-1.2a.416.416,0,0,0-.57-.205" transform="translate(-219.553 -308.697)"/><path class="h" d="M229.977,301.914a.46.46,0,0,0-.291.549l.47,1.191a.429.429,0,0,0,.53.146.452.452,0,0,0,.332-.483l-.471-1.2a.414.414,0,0,0-.568-.209" transform="translate(-238.234 -295.173)"/><path class="b" d="M213.633,319.6a.137.137,0,0,0-.014-.109l-.022-.055a.319.319,0,0,0-.441-.184.339.339,0,0,0-.213.441l.021.053a.235.235,0,0,0,.068.105c.041.026.109-.014.109-.014l.4-.166a.158.158,0,0,0,.088-.074" transform="translate(-222.225 -311.765)"/><path class="b" d="M253.762,295.5a.137.137,0,0,0-.014-.109l-.021-.055a.319.319,0,0,0-.441-.184.339.339,0,0,0-.213.441l.022.053a.238.238,0,0,0,.068.106c.042.026.109-.015.109-.015l.4-.165a.16.16,0,0,0,.088-.074" transform="translate(-260.584 -288.728)"/><path class="b" d="M273.485,285.794a.132.132,0,0,0-.013-.1l-.02-.053a.306.306,0,0,0-.423-.176.326.326,0,0,0-.2.424l.02.051a.229.229,0,0,0,.065.1c.04.025.105-.014.105-.014l.386-.158a.152.152,0,0,0,.083-.071" transform="translate(-279.465 -279.466)"/><path class="b" d="M232.957,304.56a.135.135,0,0,0-.014-.109l-.022-.055a.319.319,0,0,0-.441-.184.34.34,0,0,0-.214.441l.021.053a.239.239,0,0,0,.068.105c.042.026.11-.014.11-.014l.4-.166a.157.157,0,0,0,.088-.074" transform="translate(-240.696 -297.388)"/><g transform="translate(-11.796 3.634)"><g class="y" transform="translate(0 0)"><path class="a" d="M168.84,236.808a.166.166,0,0,0,.149.06,1.1,1.1,0,0,0,1.23-1.086l.026-.921-.265.022s0,.149,0,.345c.009.694-.026,1.063-.2,1.258a1.171,1.171,0,0,1-.814.356.153.153,0,0,1-.123-.033" transform="translate(-168.292 -234.759)"/></g></g><path class="b" d="M169.07,257.2l.008.809c.631-.026.743-.342.759-.662a.147.147,0,0,0-.021-.083.126.126,0,0,0-.088-.034Z" transform="translate(-180.307 -252.48)"/><path class="b" d="M348.707-60.794c-.156.049-.391-.1-.391-.1l-3.692-2.129a1.159,1.159,0,0,1-.423-.393,2.706,2.706,0,0,1,.085-1.051,16.284,16.284,0,0,0,.446-1.809c-.156-.277-3.562-6.175-5.451-9.443l2.036-3.526,6.627,11.476.056.1,2.8,1.512s.63.4-.049,1.713c-.508.983-1.268,2.483-1.664,3.233-.115.218-.177.363-.374.425" transform="translate(-343.006 69.124)"/><path class="b" d="M476.443,187.6a5.284,5.284,0,0,0-1.28-.527,8.345,8.345,0,0,1-1.574-.73,1.147,1.147,0,0,1-.336-.3.585.585,0,0,1-.064-.5,5.02,5.02,0,0,1,.221-.627l1.489.853a.132.132,0,0,0,.092.018c.033-.011.083-.1.085-.107.392-.905-.107-1.189-.555-1.467l-.643-.371,1.891-3.937s.265-.4.623-.214a.516.516,0,0,1,.276.668l-1,2.339c-.032.064-.033.13,0,.146s.085-.023.117-.088l.995-2.334a.443.443,0,0,1,.525-.18.457.457,0,0,1,.327.584l-1,2.344c-.032.064-.033.129,0,.146s.084-.023.116-.088l1-2.339a.359.359,0,0,1,.493-.121.392.392,0,0,1,.233.518l-.961,2.266c-.032.064-.032.129,0,.146s.084-.023.116-.088l.964-2.274a.3.3,0,0,1,.406-.168c.446.177.279.491.279.491a15.158,15.158,0,0,0-.578,2.3,2.409,2.409,0,0,0,.557,1.6l6.4,11.032h-4.02c-.979-1.7-5.11-8.869-5.2-8.994" transform="translate(-470.981 -178.339)"/><g transform="translate(4.865 2.323)"><g class="z" transform="translate(0 0)"><path class="b" d="M567.584,239.455a.429.429,0,0,0,.334.51l1.28.2s.325.04.375-.377-.246-.493-.246-.493l-1.28-.2a.388.388,0,0,0-.46.361" transform="translate(-566.096 -237.491)"/><path class="b" d="M568.7,217.372a.438.438,0,0,0,.338.5l1.277.2s.293.031.373-.366a.435.435,0,0,0-.248-.482l-1.28-.2a.393.393,0,0,0-.46.353" transform="translate(-567.165 -216.391)"/><path class="b" d="M567.717,285.917a.468.468,0,0,0,.334.533l1.277.2a.428.428,0,0,0,.392-.387.458.458,0,0,0-.256-.535l-1.28-.2a.414.414,0,0,0-.467.39" transform="translate(-566.226 -281.878)"/><path class="b" d="M565.166,261.658a.467.467,0,0,0,.334.533l1.277.2a.428.428,0,0,0,.392-.387.459.459,0,0,0-.255-.535l-1.28-.2a.414.414,0,0,0-.467.391" transform="translate(-563.787 -258.689)"/></g></g><path class="b" d="M571.34,241.836a.421.421,0,0,0,.331.5l1.268.19s.323.039.373-.374c.053-.428-.243-.485-.243-.485l-1.271-.191a.388.388,0,0,0-.458.358" transform="translate(-564.821 -237.449)"/><path class="b" d="M572.519,219.953a.431.431,0,0,0,.334.489l1.269.19s.291.03.372-.364a.425.425,0,0,0-.245-.475l-1.271-.19a.392.392,0,0,0-.458.35" transform="translate(-565.947 -216.539)"/><path class="b" d="M571.333,287.78a.461.461,0,0,0,.331.526l1.268.19a.429.429,0,0,0,.391-.384.452.452,0,0,0-.252-.53l-1.269-.19a.416.416,0,0,0-.466.388" transform="translate(-564.816 -281.339)"/><path class="b" d="M568.863,263.78a.46.46,0,0,0,.33.526l1.268.19a.427.427,0,0,0,.39-.384.451.451,0,0,0-.252-.53l-1.271-.19a.415.415,0,0,0-.466.387" transform="translate(-562.455 -258.398)"/><path class="b" d="M574.785,289.95a.132.132,0,0,0-.1-.044l-.059-.008a.318.318,0,0,0-.38.29.341.341,0,0,0,.277.406l.059.01a.238.238,0,0,0,.126-.007c.044-.023.044-.1.044-.1l.058-.432a.157.157,0,0,0-.02-.112" transform="translate(-567.596 -283.73)"/><path class="b" d="M573.975,243.153a.139.139,0,0,0-.1-.044l-.058-.009a.319.319,0,0,0-.38.291.341.341,0,0,0,.277.406l.057.009a.24.24,0,0,0,.126-.007c.044-.023.044-.1.044-.1l.058-.432a.159.159,0,0,0-.02-.112" transform="translate(-566.822 -238.997)"/><path class="b" d="M575.328,221.691a.13.13,0,0,0-.1-.041l-.056-.008a.3.3,0,0,0-.364.278.326.326,0,0,0,.265.388l.054.008a.228.228,0,0,0,.12-.007c.041-.022.04-.1.04-.1l.056-.414a.152.152,0,0,0-.019-.107" transform="translate(-568.138 -218.486)"/><path class="b" d="M571.424,265.681a.135.135,0,0,0-.1-.044l-.058-.009a.318.318,0,0,0-.38.29.342.342,0,0,0,.277.406l.056.008a.243.243,0,0,0,.126-.007c.044-.023.044-.1.044-.1l.058-.432a.158.158,0,0,0-.02-.112" transform="translate(-564.385 -260.531)"/><g transform="translate(2.801 4.957)"><g class="aa" transform="translate(0 0)"><path class="b" d="M490.526,271.44a.167.167,0,0,0,.126-.1,1.1,1.1,0,0,0-.325-1.608l-.783-.483-.113.239s.128.078.3.173c.605.339.908.553.988.8a1.177,1.177,0,0,1-.1.883.153.153,0,0,1-.088.088" transform="translate(-489.331 -268.955)"/></g></g><path class="b" d="M495.53,294.5l.706.4c.293-.56.076-.815-.193-.988a.142.142,0,0,0-.083-.023c-.044,0-.074.059-.074.059Z" transform="translate(-492.361 -287.549)"/></g></g></g></svg>